<svg width="189" height="118" viewBox="0 0 189 118" fill="none" xmlns="http://www.w3.org/2000/svg">
<path fill-rule="evenodd" clip-rule="evenodd" d="M37.8669 39.2968L53.3999 35.1345C47.4625 34.57 42.399 36.019 37.8669 39.2968ZM146.354 74.9109C139.3 74.3826 132.245 73.8536 125.189 73.3246C132.137 75.5813 139.195 76.092 146.354 74.9109ZM184.154 57.3036C186.497 61.0601 187.439 64.5647 183.703 67.7387C182.072 69.1241 178.393 69.4082 176.361 68.2785C177.278 70.1789 177.132 71.3961 174.924 72.2963C173.104 73.0377 171.717 74.7995 169.921 75.6535C162.678 79.1007 155.274 82.2482 147.051 82.06C144.943 82.0111 142.818 80.0138 140.881 82.4636C135.186 82.5612 129.482 82.6826 123.929 81.1059C122.602 80.7285 121.353 80.0747 120.075 79.5297C114.676 77.2247 109.273 74.9268 103.896 72.569C103.535 72.4101 103.429 71.7366 103.122 71.3716C102.855 71.0527 102.472 70.8304 102.14 70.5641C100.551 72.6476 99.3026 70.49 98.5097 69.8877C96.1224 68.0717 94.0749 65.8086 91.899 63.7154C91.6455 63.4727 91.4551 63.0403 91.169 62.9731C88.0363 62.2316 85.7244 60.6739 84.3313 57.5572C83.839 56.4582 82.0785 55.9267 81.2457 54.685C80.5759 54.6543 79.7577 54.8652 79.2598 54.5566C74.0605 51.3376 68.9125 48.0355 63.6725 44.7073C61.3879 45.5544 55.7369 43.8489 54.3218 41.585C54.1155 42.2294 53.9657 42.694 53.9613 42.7086C52.498 42.7301 51.1247 42.4769 49.9146 42.8136C43.7426 44.5264 37.6811 46.3348 32.3807 50.3422C26.9492 54.4479 20.9324 57.7714 15.3667 61.7122C13.3948 63.1081 11.9207 65.2527 10.3646 67.1729C9.44734 68.3049 8.76224 68.7617 7.53538 67.5831C4.26239 64.4401 3.65305 61.656 6.83741 58.2477C11.14 53.6421 15.659 48.9942 20.8617 45.5337C27.2832 41.2632 34.3716 37.9051 41.414 34.6847C48.9747 31.227 56.5403 33.0459 63.8402 36.0602C71.8262 39.3556 78.9443 44.0057 85.3738 49.8105C93.1528 56.8344 102.151 61.9468 111.728 66.1576C121.761 70.568 132.188 72.9163 143.13 72.4982C151.489 72.1797 159.637 70.7398 167.062 66.4747C172.452 63.3781 177.924 60.4242 183.368 57.4221C183.583 57.3032 183.885 57.3403 184.154 57.3036Z" fill="#F9896B"/>
<path fill-rule="evenodd" clip-rule="evenodd" d="M143.707 49.8326C140.625 46.6447 140.438 45.615 142.484 42.0002C144.669 38.1391 147.04 34.3845 149.317 30.5755C149.688 29.9543 149.917 29.2366 150.344 28.6635C151.094 27.6561 151.945 26.7261 152.754 25.7628C153.353 27.1077 154.391 28.4394 154.436 29.8031C154.491 31.4388 154.044 33.3081 153.21 34.72C150.238 39.7497 147.009 44.6276 143.707 49.8326Z" fill="#F9896B"/>
<path fill-rule="evenodd" clip-rule="evenodd" d="M109.341 28.3006C109.307 24.9088 109.172 21.396 109.314 17.8938C109.345 17.1442 110.383 16.4345 110.956 15.7064C111.641 16.2816 112.471 16.754 112.972 17.4604C113.476 18.167 113.816 19.0831 113.944 19.9496C114.523 23.893 115.014 27.8507 115.505 31.8075C115.594 32.5228 115.635 33.2751 115.504 33.9737C115.415 34.4521 115.03 35.196 114.707 35.2349C114.191 35.2986 113.369 35.0332 113.106 34.6287C111.831 32.671 110.699 30.619 109.341 28.3006Z" fill="#F9896B"/>
<path fill-rule="evenodd" clip-rule="evenodd" d="M38.1745 82.6191C35.5095 81.3548 34.9607 79.8091 35.8396 77.8499C37.0205 75.2176 38.1955 72.563 39.656 70.0856C40.1247 69.2923 41.4898 69.028 42.4443 68.5217C42.9752 69.9468 44.3319 71.745 43.8863 72.7288C42.343 76.1415 40.173 79.2708 38.1745 82.6191Z" fill="#F9896B"/>
<path fill-rule="evenodd" clip-rule="evenodd" d="M56.8644 89.8801C53.0562 85.103 56.0083 80.2982 56.3893 75.5964C56.425 75.1654 57.7059 74.3667 57.9027 74.4983C58.8786 75.1499 60.5186 76.1857 60.415 76.8502C59.7553 81.0686 58.7036 85.2265 57.7463 89.3964C57.7085 89.5608 57.3133 89.6429 56.8644 89.8801Z" fill="#F9896B"/>
<path fill-rule="evenodd" clip-rule="evenodd" d="M132.434 35.8801C131.913 34.6118 130.906 33.3183 130.965 32.0778C131.129 28.6723 131.668 25.2762 132.234 21.9059C132.354 21.1883 133.216 20.595 133.737 19.9448C134.359 20.618 135.491 21.2774 135.51 21.9669C135.586 24.7314 135.468 27.5252 135.122 30.2703C134.884 32.1572 134.151 33.981 133.639 35.8336C133.238 35.8491 132.836 35.8646 132.434 35.8801Z" fill="#F9896B"/>
<path fill-rule="evenodd" clip-rule="evenodd" d="M82.5304 81.9546C81.4883 81.7938 80.9758 81.867 80.6859 81.6465C77.6585 79.3353 74.5788 77.0796 71.7237 74.569C70.9137 73.8563 70.7874 72.3652 70.7591 71.0383C75.3034 73.9266 80.0791 76.3335 82.5304 81.9546Z" fill="#F9896B"/>
</svg>
