<svg width="203" height="31" viewBox="0 0 203 31" fill="none" xmlns="http://www.w3.org/2000/svg">
<path d="M36.6 27L44.04 5.4H46.965L54.405 27H52.11L45.045 6.63H45.915L38.895 27H36.6ZM39.915 21.765V19.695H51.075V21.765H39.915ZM63.2337 27.45C61.6037 27.45 60.2237 27.085 59.0937 26.355C57.9637 25.625 57.1037 24.62 56.5137 23.34C55.9337 22.05 55.6337 20.57 55.6137 18.9C55.6337 17.2 55.9437 15.71 56.5437 14.43C57.1437 13.14 58.0087 12.14 59.1387 11.43C60.2687 10.71 61.6387 10.35 63.2487 10.35C64.8887 10.35 66.3137 10.75 67.5237 11.55C68.7437 12.35 69.5787 13.445 70.0287 14.835L67.8687 15.525C67.4887 14.555 66.8837 13.805 66.0537 13.275C65.2337 12.735 64.2937 12.465 63.2337 12.465C62.0437 12.465 61.0587 12.74 60.2787 13.29C59.4987 13.83 58.9187 14.585 58.5387 15.555C58.1587 16.525 57.9637 17.64 57.9537 18.9C57.9737 20.84 58.4237 22.4 59.3037 23.58C60.1837 24.75 61.4937 25.335 63.2337 25.335C64.3337 25.335 65.2687 25.085 66.0387 24.585C66.8187 24.075 67.4087 23.335 67.8087 22.365L70.0287 23.025C69.4287 24.465 68.5487 25.565 67.3887 26.325C66.2287 27.075 64.8437 27.45 63.2337 27.45ZM81.345 27C80.435 27.19 79.535 27.265 78.645 27.225C77.765 27.185 76.975 26.995 76.275 26.655C75.585 26.315 75.06 25.785 74.7 25.065C74.41 24.465 74.25 23.86 74.22 23.25C74.2 22.63 74.19 21.925 74.19 21.135V6.3H76.38V21.045C76.38 21.725 76.385 22.295 76.395 22.755C76.415 23.205 76.52 23.605 76.71 23.955C77.07 24.625 77.64 25.025 78.42 25.155C79.21 25.285 80.185 25.255 81.345 25.065V27ZM70.725 12.69V10.8H81.345V12.69H70.725ZM84.2367 7.725V5.25H86.4417V7.725H84.2367ZM84.2367 27V10.8H86.4417V27H84.2367ZM94.7187 27L88.8387 10.8H91.0737L95.8587 24.12L100.614 10.8H102.879L96.9987 27H94.7187ZM111.242 27.45C109.662 27.45 108.292 27.1 107.132 26.4C105.982 25.7 105.087 24.715 104.447 23.445C103.807 22.175 103.487 20.685 103.487 18.975C103.487 17.205 103.802 15.675 104.432 14.385C105.062 13.095 105.947 12.1 107.087 11.4C108.237 10.7 109.592 10.35 111.152 10.35C112.752 10.35 114.117 10.72 115.247 11.46C116.377 12.19 117.232 13.24 117.812 14.61C118.392 15.98 118.657 17.615 118.607 19.515H116.357V18.735C116.317 16.635 115.862 15.05 114.992 13.98C114.132 12.91 112.872 12.375 111.212 12.375C109.472 12.375 108.137 12.94 107.207 14.07C106.287 15.2 105.827 16.81 105.827 18.9C105.827 20.94 106.287 22.525 107.207 23.655C108.137 24.775 109.452 25.335 111.152 25.335C112.312 25.335 113.322 25.07 114.182 24.54C115.052 24 115.737 23.225 116.237 22.215L118.292 23.01C117.652 24.42 116.707 25.515 115.457 26.295C114.217 27.065 112.812 27.45 111.242 27.45ZM105.047 19.515V17.67H117.422V19.515H105.047ZM135.172 27.45C133.522 27.45 132.062 27.11 130.792 26.43C129.532 25.75 128.542 24.79 127.822 23.55C127.102 22.31 126.742 20.86 126.742 19.2V5.415L128.962 5.4V18.915C128.962 20.035 129.152 21.005 129.532 21.825C129.912 22.635 130.407 23.305 131.017 23.835C131.637 24.355 132.312 24.74 133.042 24.99C133.772 25.24 134.482 25.365 135.172 25.365C135.872 25.365 136.587 25.24 137.317 24.99C138.047 24.74 138.717 24.355 139.327 23.835C139.937 23.305 140.432 22.635 140.812 21.825C141.192 21.005 141.382 20.035 141.382 18.915V5.4H143.602V19.2C143.602 20.86 143.242 22.31 142.522 23.55C141.802 24.78 140.807 25.74 139.537 26.43C138.277 27.11 136.822 27.45 135.172 27.45ZM153.251 27.435C151.351 27.435 149.786 27.025 148.556 26.205C147.336 25.385 146.586 24.245 146.306 22.785L148.556 22.41C148.796 23.33 149.341 24.065 150.191 24.615C151.051 25.155 152.111 25.425 153.371 25.425C154.601 25.425 155.571 25.17 156.281 24.66C156.991 24.14 157.346 23.435 157.346 22.545C157.346 22.045 157.231 21.64 157.001 21.33C156.781 21.01 156.326 20.715 155.636 20.445C154.946 20.175 153.916 19.855 152.546 19.485C151.076 19.085 149.926 18.685 149.096 18.285C148.266 17.885 147.676 17.425 147.326 16.905C146.976 16.375 146.801 15.73 146.801 14.97C146.801 14.05 147.061 13.245 147.581 12.555C148.101 11.855 148.821 11.315 149.741 10.935C150.661 10.545 151.731 10.35 152.951 10.35C154.171 10.35 155.261 10.55 156.221 10.95C157.191 11.34 157.971 11.89 158.561 12.6C159.151 13.31 159.501 14.135 159.611 15.075L157.361 15.48C157.211 14.53 156.736 13.78 155.936 13.23C155.146 12.67 154.141 12.38 152.921 12.36C151.771 12.33 150.836 12.55 150.116 13.02C149.396 13.48 149.036 14.095 149.036 14.865C149.036 15.295 149.166 15.665 149.426 15.975C149.686 16.275 150.156 16.56 150.836 16.83C151.526 17.1 152.506 17.395 153.776 17.715C155.266 18.095 156.436 18.495 157.286 18.915C158.136 19.335 158.741 19.83 159.101 20.4C159.461 20.97 159.641 21.675 159.641 22.515C159.641 24.045 159.071 25.25 157.931 26.13C156.801 27 155.241 27.435 153.251 27.435ZM169.223 27.45C167.643 27.45 166.273 27.1 165.113 26.4C163.963 25.7 163.068 24.715 162.428 23.445C161.788 22.175 161.468 20.685 161.468 18.975C161.468 17.205 161.783 15.675 162.413 14.385C163.043 13.095 163.928 12.1 165.068 11.4C166.218 10.7 167.573 10.35 169.133 10.35C170.733 10.35 172.098 10.72 173.228 11.46C174.358 12.19 175.213 13.24 175.793 14.61C176.373 15.98 176.638 17.615 176.588 19.515H174.338V18.735C174.298 16.635 173.843 15.05 172.973 13.98C172.113 12.91 170.853 12.375 169.193 12.375C167.453 12.375 166.118 12.94 165.188 14.07C164.268 15.2 163.808 16.81 163.808 18.9C163.808 20.94 164.268 22.525 165.188 23.655C166.118 24.775 167.433 25.335 169.133 25.335C170.293 25.335 171.303 25.07 172.163 24.54C173.033 24 173.718 23.225 174.218 22.215L176.273 23.01C175.633 24.42 174.688 25.515 173.438 26.295C172.198 27.065 170.793 27.45 169.223 27.45ZM163.028 19.515V17.67H175.403V19.515H163.028ZM179.317 27V10.8H181.297V14.7L180.907 14.19C181.087 13.71 181.322 13.27 181.612 12.87C181.902 12.46 182.217 12.125 182.557 11.865C182.977 11.495 183.467 11.215 184.027 11.025C184.587 10.825 185.152 10.71 185.722 10.68C186.292 10.64 186.812 10.68 187.282 10.8V12.87C186.692 12.72 186.047 12.685 185.347 12.765C184.647 12.845 184.002 13.125 183.412 13.605C182.872 14.025 182.467 14.53 182.197 15.12C181.927 15.7 181.747 16.32 181.657 16.98C181.567 17.63 181.522 18.275 181.522 18.915V27H179.317ZM194.986 27.435C193.086 27.435 191.521 27.025 190.291 26.205C189.071 25.385 188.321 24.245 188.041 22.785L190.291 22.41C190.531 23.33 191.076 24.065 191.926 24.615C192.786 25.155 193.846 25.425 195.106 25.425C196.336 25.425 197.306 25.17 198.016 24.66C198.726 24.14 199.081 23.435 199.081 22.545C199.081 22.045 198.966 21.64 198.736 21.33C198.516 21.01 198.061 20.715 197.371 20.445C196.681 20.175 195.651 19.855 194.281 19.485C192.811 19.085 191.661 18.685 190.831 18.285C190.001 17.885 189.411 17.425 189.061 16.905C188.711 16.375 188.536 15.73 188.536 14.97C188.536 14.05 188.796 13.245 189.316 12.555C189.836 11.855 190.556 11.315 191.476 10.935C192.396 10.545 193.466 10.35 194.686 10.35C195.906 10.35 196.996 10.55 197.956 10.95C198.926 11.34 199.706 11.89 200.296 12.6C200.886 13.31 201.236 14.135 201.346 15.075L199.096 15.48C198.946 14.53 198.471 13.78 197.671 13.23C196.881 12.67 195.876 12.38 194.656 12.36C193.506 12.33 192.571 12.55 191.851 13.02C191.131 13.48 190.771 14.095 190.771 14.865C190.771 15.295 190.901 15.665 191.161 15.975C191.421 16.275 191.891 16.56 192.571 16.83C193.261 17.1 194.241 17.395 195.511 17.715C197.001 18.095 198.171 18.495 199.021 18.915C199.871 19.335 200.476 19.83 200.836 20.4C201.196 20.97 201.376 21.675 201.376 22.515C201.376 24.045 200.806 25.25 199.666 26.13C198.536 27 196.976 27.435 194.986 27.435Z" fill="white"/>
<circle cx="10" cy="9" r="7" fill="#B1CA16"/>
<path d="M20 27H10H0C0 21.4772 4.47715 17 10 17C15.5228 17 20 21.4772 20 27Z" fill="#B1CA16"/>
</svg>
