<svg width="20" height="20" viewBox="0 0 20 20" fill="none" xmlns="http://www.w3.org/2000/svg">
<g clip-path="url(#clip0_0_75)">
<path d="M19.995 19.9999V19.999H20V12.664C20 9.07569 19.2275 6.31152 15.0325 6.31152C13.0158 6.31152 11.6625 7.41819 11.11 8.46736H11.0517V6.64652H7.07416V19.999H11.2158V13.3874C11.2158 11.6465 11.5458 9.96319 13.7017 9.96319C15.8258 9.96319 15.8575 11.9499 15.8575 13.499V19.9999H19.995Z" fill="#3734A9"/>
<path d="M0.330139 6.64771H4.47681V20.0002H0.330139V6.64771Z" fill="#3734A9"/>
<path d="M2.40167 0C1.07583 0 0 1.07583 0 2.40167C0 3.7275 1.07583 4.82583 2.40167 4.82583C3.7275 4.82583 4.80333 3.7275 4.80333 2.40167C4.8025 1.07583 3.72667 0 2.40167 0V0Z" fill="#3734A9"/>
</g>
<defs>
<clipPath id="clip0_0_75">
<rect width="20" height="20" fill="white"/>
</clipPath>
</defs>
</svg>
