<svg width="21" height="20" viewBox="0 0 21 20" fill="none" xmlns="http://www.w3.org/2000/svg">
<g clip-path="url(#clip0_0_79)">
<path d="M18.9189 5.9275C19.7322 5.35 20.4164 4.62917 20.9739 3.79917V3.79833C20.2297 4.12417 19.438 4.34083 18.6114 4.44583C19.4614 3.93833 20.1105 3.14083 20.4155 2.18C19.623 2.6525 18.748 2.98583 17.8155 3.1725C17.063 2.37083 15.9905 1.875 14.8205 1.875C12.5505 1.875 10.723 3.7175 10.723 5.97583C10.723 6.30083 10.7505 6.61333 10.818 6.91083C7.40971 6.74417 4.39304 5.11083 2.36638 2.62167C2.01304 3.23583 1.80471 3.93833 1.80471 4.69417C1.80471 6.11417 2.53554 7.3725 3.62638 8.10167C2.96721 8.08917 2.32138 7.8975 1.77388 7.59667V7.64167C1.77388 9.63417 3.19471 11.2892 5.05888 11.6708C4.72471 11.7625 4.36138 11.8058 3.98388 11.8058C3.72138 11.8058 3.45638 11.7908 3.20804 11.7358C3.73888 13.3592 5.24721 14.5533 7.03888 14.5925C5.64388 15.6833 3.87221 16.3408 1.95471 16.3408C1.61888 16.3408 1.29638 16.3258 0.973877 16.285C2.79054 17.4558 4.94221 18.125 7.26388 18.125C14.4997 18.125 19.2155 12.0883 18.9189 5.9275Z" fill="#3734A9"/>
</g>
<defs>
<clipPath id="clip0_0_79">
<rect width="20" height="20" fill="white" transform="translate(0.973938)"/>
</clipPath>
</defs>
</svg>
