<svg width="21" height="20" viewBox="0 0 21 20" fill="none" xmlns="http://www.w3.org/2000/svg">
<g clip-path="url(#clip0_0_81)">
<path d="M9.39154 14.0991C9.44487 14.0541 9.49904 14.0075 9.54904 13.9583C6.76487 16.69 2.22487 15.415 1.16071 11.5625V11.5566C-0.266793 6.31496 5.75237 2.33329 9.54737 5.99996C9.62654 6.08412 14.869 11.675 14.5357 11.3191H14.5507C15.3332 12.1258 16.4649 12.0375 17.1382 11.3325C17.8624 10.5758 17.8882 9.34079 17.1774 8.57162C16.0549 7.27912 13.8507 8.24496 14.0615 10.1608L12.7999 8.87579L11.3365 7.47662C11.6382 6.87746 12.034 6.35329 12.5299 5.89996C12.4765 5.94579 12.4224 5.99329 12.3724 6.04079C15.1674 3.29912 19.704 4.60412 20.7607 8.43996V8.44496C22.1915 13.6858 16.1657 17.6675 12.374 14.0008C12.2965 13.9175 7.05737 8.29162 7.38904 8.64829L7.38571 8.63579C7.37237 8.63579 7.37237 8.62329 7.37237 8.62329C6.55071 7.77579 5.43654 7.90329 4.78487 8.59746C4.05987 9.35412 4.03487 10.5891 4.74737 11.3466C5.82071 12.6091 8.07237 11.6733 7.86071 9.71912C7.94237 9.80329 10.7682 12.7041 10.5882 12.52C10.1307 13.4325 9.61904 13.8516 9.39154 14.0991Z" fill="#3734A9"/>
</g>
<defs>
<clipPath id="clip0_0_81">
<rect width="20" height="20" fill="white" transform="translate(0.960938)"/>
</clipPath>
</defs>
</svg>
