<svg width="161" height="161" viewBox="0 0 161 161" fill="none" xmlns="http://www.w3.org/2000/svg">
<path opacity="0.4" d="M93.2841 160.344C102.177 160.344 110.982 158.592 119.198 155.189C127.413 151.786 134.878 146.799 141.166 140.511C147.454 134.223 152.442 126.758 155.845 118.542C159.248 110.327 160.999 101.521 160.999 92.6287L93.2841 92.6287L93.2841 160.344Z" fill="#FDBC64"/>
<path opacity="0.3" d="M52.3734 105.678C59.2512 105.678 66.0617 104.323 72.4159 101.691C78.7701 99.0593 84.5437 95.2015 89.4071 90.3382C94.2704 85.4749 98.1282 79.7013 100.76 73.347C103.392 66.9928 104.747 60.1824 104.747 53.3046L52.3734 53.3046L52.3734 105.678Z" fill="#E8F2FF"/>
</svg>
