<svg width="83" height="83" viewBox="0 0 83 83" fill="none" xmlns="http://www.w3.org/2000/svg">
<path d="M48.091 82.1815C52.6753 82.1815 57.2147 81.2785 61.4501 79.5242C65.6855 77.7698 69.5338 75.1984 72.7754 71.9568C76.017 68.7152 78.5884 64.8669 80.3428 60.6315C82.0971 56.3961 83.0001 51.8567 83.0001 47.2724L48.091 47.2724L48.091 82.1815Z" fill="#00E1F0"/>
<path opacity="0.1" d="M27 54C30.5457 54 34.0567 53.3016 37.3325 51.9447C40.6082 50.5879 43.5847 48.5991 46.0919 46.0919C48.5991 43.5847 50.5879 40.6082 51.9448 37.3325C53.3016 34.0567 54 30.5457 54 27L27 27L27 54Z" fill="#E8F2FF"/>
</svg>
