<svg width="148" height="148" viewBox="0 0 148 148" fill="none" xmlns="http://www.w3.org/2000/svg">
<g opacity="0.3">
<path d="M0 0H4V4H0V0Z" fill="#C4C4C4"/>
<path d="M24 0H28V4H24V0Z" fill="#C4C4C4"/>
<path d="M48 0H52V4H48V0Z" fill="#C4C4C4"/>
<path d="M72 0H76V4H72V0Z" fill="#C4C4C4"/>
<path d="M96 0H100V4H96V0Z" fill="#C4C4C4"/>
<path d="M120 0H124V4H120V0Z" fill="#C4C4C4"/>
<path d="M144 0H148V4H144V0Z" fill="#C4C4C4"/>
<path d="M0 24H4V28H0V24Z" fill="#C4C4C4"/>
<path d="M24 24H28V28H24V24Z" fill="#C4C4C4"/>
<path d="M48 24H52V28H48V24Z" fill="#C4C4C4"/>
<path d="M72 24H76V28H72V24Z" fill="#C4C4C4"/>
<path d="M96 24H100V28H96V24Z" fill="#C4C4C4"/>
<path d="M120 24H124V28H120V24Z" fill="#C4C4C4"/>
<path d="M144 24H148V28H144V24Z" fill="#C4C4C4"/>
<path d="M0 48H4V52H0V48Z" fill="#C4C4C4"/>
<path d="M24 48H28V52H24V48Z" fill="#C4C4C4"/>
<path d="M48 48H52V52H48V48Z" fill="#C4C4C4"/>
<path d="M72 48H76V52H72V48Z" fill="#C4C4C4"/>
<path d="M96 48H100V52H96V48Z" fill="#C4C4C4"/>
<path d="M120 48H124V52H120V48Z" fill="#C4C4C4"/>
<path d="M144 48H148V52H144V48Z" fill="#C4C4C4"/>
<path d="M0 72H4V76H0V72Z" fill="#C4C4C4"/>
<path d="M24 72H28V76H24V72Z" fill="#C4C4C4"/>
<path d="M48 72H52V76H48V72Z" fill="#C4C4C4"/>
<path d="M72 72H76V76H72V72Z" fill="#C4C4C4"/>
<path d="M96 72H100V76H96V72Z" fill="#C4C4C4"/>
<path d="M120 72H124V76H120V72Z" fill="#C4C4C4"/>
<path d="M144 72H148V76H144V72Z" fill="#C4C4C4"/>
<path d="M0 96H4V100H0V96Z" fill="#C4C4C4"/>
<path d="M24 96H28V100H24V96Z" fill="#C4C4C4"/>
<path d="M48 96H52V100H48V96Z" fill="#C4C4C4"/>
<path d="M72 96H76V100H72V96Z" fill="#C4C4C4"/>
<path d="M96 96H100V100H96V96Z" fill="#C4C4C4"/>
<path d="M120 96H124V100H120V96Z" fill="#C4C4C4"/>
<path d="M144 96H148V100H144V96Z" fill="#C4C4C4"/>
<path d="M0 120H4V124H0V120Z" fill="#C4C4C4"/>
<path d="M24 120H28V124H24V120Z" fill="#C4C4C4"/>
<path d="M48 120H52V124H48V120Z" fill="#C4C4C4"/>
<path d="M72 120H76V124H72V120Z" fill="#C4C4C4"/>
<path d="M96 120H100V124H96V120Z" fill="#C4C4C4"/>
<path d="M120 120H124V124H120V120Z" fill="#C4C4C4"/>
<path d="M144 120H148V124H144V120Z" fill="#C4C4C4"/>
<path d="M0 144H4V148H0V144Z" fill="#C4C4C4"/>
<path d="M24 144H28V148H24V144Z" fill="#C4C4C4"/>
<path d="M48 144H52V148H48V144Z" fill="#C4C4C4"/>
<path d="M72 144H76V148H72V144Z" fill="#C4C4C4"/>
<path d="M96 144H100V148H96V144Z" fill="#C4C4C4"/>
<path d="M120 144H124V148H120V144Z" fill="#C4C4C4"/>
<path d="M144 144H148V148H144V144Z" fill="#C4C4C4"/>
</g>
</svg>
