<svg width="74" height="104" viewBox="0 0 74 104" fill="none" xmlns="http://www.w3.org/2000/svg">
<path fill-rule="evenodd" clip-rule="evenodd" d="M61.9521 82.4134C61.1817 83.0169 60.8201 83.8912 60.6652 84.8741C60.5799 85.4163 60.0849 85.4905 59.7125 85.5857C59.3903 85.6686 59.0929 85.6794 58.8323 85.9453C58.7246 86.0554 58.3883 86.0795 58.2471 85.9933C57.7952 85.7179 57.3114 85.5166 56.8943 85.1492C55.4255 83.8569 54.349 82.2585 53.3413 80.6278C52.3132 78.9639 51.2371 77.3179 50.4497 75.5132C50.2049 74.9515 50.195 74.9561 50.8113 74.5199C51.3125 75.473 51.7797 76.4406 52.3207 77.3651C52.7498 78.0986 53.2688 78.7788 53.7915 79.5463C53.9145 79.2373 53.9116 79.0393 53.7207 78.7638C52.681 77.262 51.694 75.7261 50.9112 73.9674C51.0362 73.8858 51.1874 73.7868 51.3378 73.6891C51.3726 73.7189 51.45 73.786 51.5826 73.9007V73.2744C51.9541 73.2003 52.2909 73.1336 52.7291 73.0466C53.0708 73.2061 53.2332 73.8108 53.7957 73.8858C53.7774 74.4976 54.3122 74.8024 54.581 75.2494C54.9144 75.8036 55.3663 76.2861 55.6861 76.6957C56.0473 76.6477 56.3173 76.5972 56.5899 76.5781C57.5467 76.511 57.5235 76.5412 58.1195 77.0669C58.7818 77.6509 59.2349 78.4681 60.089 78.8392C60.1441 78.8628 60.2054 78.9465 60.2083 79.0049C60.2348 79.6196 60.579 79.8428 61.156 79.992C61.6402 80.1175 61.7777 80.6278 61.8005 81.1298C61.8179 81.5146 61.8887 81.8969 61.9521 82.4134Z" fill="black"/>
<path fill-rule="evenodd" clip-rule="evenodd" d="M49.7508 53.8002C49.1916 53.241 48.7223 52.6934 48.1752 52.2395C46.6058 50.9372 45.8606 49.0948 44.922 47.3801C44.5004 46.6101 44.6209 45.7452 44.6392 44.9122C44.6425 44.7677 44.8421 44.6273 44.9589 44.4757C45.1184 44.7913 45.2679 45.087 45.4862 45.5186V43.9766C45.8147 43.8138 46.139 43.7251 46.3602 43.5238C46.6348 43.2741 46.945 43.3234 47.1968 43.3867C47.4901 43.4605 47.7403 43.7053 48.0352 43.8925C47.8625 44.7018 48.181 45.3795 48.5757 46.0857C48.929 45.99 49.3461 46.241 49.6999 45.8782C49.7748 45.8011 50.0209 45.7949 50.1269 45.8587C50.9934 46.3802 52.0567 46.6569 52.4949 47.7272C52.5736 47.9202 52.661 48.1695 52.8192 48.2553C53.0578 48.3845 52.8436 48.7879 53.2533 48.8037C53.5905 48.8165 53.3751 49.1603 53.4355 49.3475C53.5105 49.5795 53.6128 49.8064 53.6534 50.0442C53.6907 50.2621 53.6613 50.4915 53.6613 50.7177C52.7939 51.4616 52.2364 52.4093 51.809 53.4651C51.1152 53.5777 50.411 53.6925 49.7508 53.8002Z" fill="black"/>
<path fill-rule="evenodd" clip-rule="evenodd" d="M21.5462 10.0766C21.0645 10.4038 20.6006 10.7319 20.1172 11.0272C20.0704 11.0558 19.9022 10.8855 19.7208 10.7588C19.6098 10.958 19.5344 11.1407 19.4168 11.2898C19.2785 11.4658 19.1008 11.6108 18.9438 11.7728C18.6257 12.1004 18.3192 12.4653 17.849 11.9674C17.813 11.9297 17.7037 11.967 17.6295 11.9592C17.1014 11.902 16.5982 12.0337 16.0667 11.6087C15.6389 11.2666 15.0942 11.0301 14.692 10.6101C14.3151 10.2158 13.9249 9.84549 13.6619 9.34513C13.2585 8.57679 12.86 7.81714 13.0037 6.91543C13.0398 6.68928 13.1951 6.48176 13.3355 6.17898C13.6196 6.41176 13.8118 6.56916 14.0363 6.75348C14.2202 6.14336 14.1825 5.43425 14.7479 4.89661C14.9695 5.06229 15.1837 5.22217 15.4508 5.42182V4.59797C16.1931 4.47123 16.8674 4.21608 17.6113 4.26081C18.0379 4.28649 18.4066 4.42152 18.6766 4.6804C19.0237 5.01259 19.4487 5.25034 19.732 5.67614C19.988 6.06135 20.338 6.38359 20.6068 6.7804C21.0479 7.43277 21.197 8.19531 21.5197 8.88951C21.6738 9.22046 21.5462 9.68271 21.5462 10.0766Z" fill="black"/>
<path fill-rule="evenodd" clip-rule="evenodd" d="M-4.43654 43.8945C-4.91204 43.419 -5.41612 42.9149 -5.98358 42.3475C-5.98358 41.9718 -6.02251 41.524 -5.9637 41.0895C-5.94133 40.928 -5.70814 40.7648 -5.53459 40.67C-5.46873 40.6335 -5.29932 40.7868 -5.17589 40.8543C-5.01186 40.5295 -4.91577 40.0901 -4.36115 40.1969C-4.25802 40.2172 -4.1118 40.2234 -4.04139 40.1667C-3.76512 39.943 -3.46441 39.7148 -3.11109 39.813C-2.47778 39.9894 -1.77198 40.0926 -1.27825 40.5295C-0.302396 41.394 0.625415 42.3334 1.11127 43.5818C1.4008 44.3261 1.66216 45.0949 1.80216 45.8769C1.86305 46.219 1.77068 46.6887 1.38092 46.9613C0.73932 47.4107 0.121747 47.8961 -0.533934 48.3236C-0.757189 48.4689 -1.07198 48.5696 -1.33251 48.5468C-2.97399 48.4047 -4.1437 47.6323 -4.62873 45.7783C-4.69956 45.5082 -4.86896 45.227 -4.83251 44.9743C-4.7795 44.6086 -4.57985 44.2636 -4.43654 43.8945Z" fill="black"/>
<path fill-rule="evenodd" clip-rule="evenodd" d="M66.9466 32.04C66.9764 31.8316 67.0063 31.6229 67.0394 31.3934C67.1214 31.4531 67.1943 31.4767 67.2134 31.5226C67.5029 32.2309 67.8637 32.9098 68.0339 33.6674C68.1408 34.1437 68.277 34.5997 67.816 34.9709C67.5021 35.2235 67.8206 35.9492 67.1144 35.9086C66.7813 36.4433 66.2479 36.3899 65.7376 36.3535C65.6224 36.7113 65.5508 37.0601 65.4004 37.3712C65.231 37.7216 64.6896 37.8206 64.1093 37.6549C63.9768 37.6172 63.8488 37.4884 63.7274 37.4991C62.7872 37.5812 62.7889 37.5882 62.3933 36.8468C62.1957 36.4769 61.9571 36.1236 61.8039 35.7363C61.6175 35.2641 61.3276 34.9692 60.8508 34.7654C60.1429 34.4626 59.6832 33.8488 59.561 33.1186C59.4504 32.4575 59.7598 31.8511 60.35 31.3748C60.6425 31.7567 60.9341 32.1373 61.3429 32.6708C61.3429 32.1249 61.3371 31.7575 61.3445 31.3905C61.352 31.0256 61.3918 31.1002 61.9692 30.84C62.3817 30.6541 62.9794 30.8794 63.2167 30.307C63.6243 30.2912 64.0315 30.2763 64.439 30.2606C65.1916 30.2307 65.8593 30.3128 66.2102 31.1494C66.3493 31.4808 66.6828 31.731 66.9466 32.04Z" fill="black"/>
<path fill-rule="evenodd" clip-rule="evenodd" d="M38.7326 89.4748C38.1482 89.4583 37.5952 89.3004 37.3128 89.9483C36.8356 89.3195 36.7793 88.8734 37.2651 88.3739C37.6006 88.0293 37.8218 87.5989 38.2493 87.3011C38.6233 87.0402 38.7608 86.4632 39.0831 86.0958C39.3307 85.8133 39.7027 85.6393 40.0196 85.4177C40.1186 85.5142 40.2254 85.6194 40.394 85.7847C40.2151 85.9119 40.0394 86.037 39.8634 86.1616C39.8829 86.2068 39.9028 86.2519 39.9222 86.2971C40.1799 86.2565 40.4371 86.2159 40.7266 86.1703C40.8036 86.2859 40.8931 86.5825 41.0849 86.6823C42.2368 87.282 42.972 88.2832 43.672 89.3108C43.9019 89.648 43.981 90.0841 44.1657 90.4573C44.6217 91.3797 44.7394 91.55 44.6006 92.3883C44.5004 92.9943 44.3898 93.6404 43.9139 94.1342C43.7258 94.3288 43.5254 94.6101 43.5154 94.8594C43.4906 95.489 43.1447 95.5897 42.6361 95.5574C42.494 95.5483 42.3436 95.5665 42.2053 95.6038C41.3181 95.8423 41.2265 95.8175 40.7842 95.1374C40.1289 94.1304 39.8158 92.979 39.4347 91.8598C39.1655 91.0691 38.96 90.256 38.7326 89.4748Z" fill="black"/>
<path fill-rule="evenodd" clip-rule="evenodd" d="M24.3682 77.082C23.7407 76.7258 23.1053 76.4139 22.5938 75.8982C21.6407 74.9356 20.6176 74.0339 19.7383 73.0083C18.8138 71.9302 17.835 70.8673 17.2771 69.6032C17.3359 69.1041 17.9862 69.6342 17.9986 69.0452C18.0024 68.8771 18.4145 68.7147 18.6431 68.5552C19.2106 68.1593 19.5275 68.093 19.9408 68.5329C20.3488 68.9674 20.8206 69.1231 21.3545 69.2362C22.1792 69.411 22.7483 70.0443 23.4541 70.4341C24.2092 70.8507 24.7472 71.5218 25.3607 72.1045C25.6783 72.4061 26.0731 72.6376 26.346 72.9715C26.6206 73.3074 26.8729 73.7112 26.9702 74.1242C27.0291 74.3756 26.8402 74.755 26.648 74.9791C26.4107 75.2554 26.2984 75.6542 25.883 75.788C25.6427 75.8651 25.6767 76.1335 25.6299 76.3547C25.576 76.6086 25.5052 76.9176 25.0645 76.5986C24.7563 76.3762 24.497 76.6918 24.3682 77.082Z" fill="black"/>
<path fill-rule="evenodd" clip-rule="evenodd" d="M69.845 70.5486C68.5577 70.0185 68.0043 69.0327 67.4542 68.0746C66.9709 67.2325 66.5302 66.3557 66.1706 65.454C65.8123 64.5535 65.1873 63.7002 65.4661 62.567C66.2804 63.1344 66.2129 64.2192 66.9949 64.9445C66.8516 63.7972 66.2564 62.9108 65.9594 61.7021C66.3703 61.9275 66.5194 62.0091 66.7016 62.1089C66.7368 61.9121 66.7737 61.7059 66.8102 61.5004C67.1506 61.4358 67.4865 61.372 67.8834 61.2966C67.9886 61.4648 68.1265 61.7133 68.2905 61.9436C68.93 62.8395 68.9338 62.8354 70.0952 63.2483C70.2248 63.2947 70.3462 63.3701 70.4638 63.4447C71.3635 64.013 72.1823 64.6533 72.6773 65.6412C72.8604 66.0065 73.1097 66.6775 73.0986 67.0665C73.0961 67.1576 73.1723 67.2644 73.2386 67.3415C73.4076 67.5374 73.3313 67.7043 73.1565 67.8033C72.6491 68.0895 72.4292 68.6528 71.9786 68.99C71.7864 69.1337 71.752 69.3251 71.7172 69.5624C71.6691 69.8855 71.0354 70.3043 70.7405 70.2363C70.5578 70.1941 70.4398 69.8586 70.1909 70.1059C70.0604 70.2359 69.961 70.3975 69.845 70.5486Z" fill="black"/>
<path fill-rule="evenodd" clip-rule="evenodd" d="M33.2642 44.2238C33.067 44.2565 32.8604 44.2905 32.575 44.3377C32.6876 44.5489 32.768 44.6989 32.8521 44.8563C32.3157 45.3926 31.7573 45.951 31.1816 46.5271C31.0888 46.5271 30.9753 46.5102 30.8685 46.5296C29.6014 46.7641 28.7577 46.045 28.054 45.1781C27.5043 44.5009 27.0317 43.7549 26.6639 42.941C26.4344 42.4328 26.2294 41.9647 26.3934 41.2742C26.7778 42.1192 27.1204 42.8714 27.4629 43.624C27.5238 43.6041 27.5847 43.5847 27.646 43.5648C27.6182 43.4215 27.6141 43.2678 27.5586 43.1361C27.3295 42.5918 27.069 42.06 26.8532 41.5112C26.7575 41.268 26.5525 40.9653 27.0748 40.8522C27.2359 40.8174 27.3304 40.4699 27.4534 40.264C27.5611 40.0834 27.6654 39.9008 27.7508 39.755C28.2789 39.7065 28.2839 40.1683 28.6131 40.3589C28.5365 40.0681 28.4599 39.7773 28.3588 39.3946C28.5278 39.2608 28.7536 39.0819 28.9793 38.9025C29.1218 39.0442 29.3107 39.2699 29.4859 38.8537C29.676 38.4038 29.9568 38.2286 30.412 38.5239C30.4534 38.5509 30.5392 38.5716 30.5665 38.5492C31.0938 38.1147 31.4044 38.5476 31.6484 38.8797C32.2308 39.6738 32.505 40.6273 32.8537 41.5344C32.9357 41.7473 33.1143 42.2472 32.5137 42.2712C32.4797 42.2725 32.4536 42.4593 32.4242 42.5595C32.5493 42.5897 32.7415 42.6867 32.7891 42.6386C33.1259 42.301 33.3073 42.7418 33.2741 42.8192C33.0716 43.2951 33.5409 43.7549 33.2642 44.2238Z" fill="black"/>
<path fill-rule="evenodd" clip-rule="evenodd" d="M29.1738 20.1193C29.3064 20.2519 29.4393 20.3848 29.6411 20.5861C29.6779 20.2668 29.7086 20.0034 29.7421 19.7159C30.2069 19.6186 30.6861 19.496 31.1728 19.4239C31.4669 19.3804 31.7775 19.3816 32.0708 19.4268C32.2944 19.4616 32.1188 19.8783 32.5359 19.9147C32.8055 19.9383 33.0127 20.3964 33.2044 20.7154C33.3602 20.9743 33.127 21.5347 33.7184 21.5011C33.7387 21.8677 33.759 22.2347 33.7802 22.6012C33.7818 22.6369 33.7901 22.6721 33.7955 22.7077L35.4738 24.386C35.6536 24.386 35.8441 24.3628 36.026 24.3914C36.3064 24.4366 36.6083 24.7145 36.4646 24.8868C36.1448 25.2699 36.7181 25.5346 36.4907 25.8473C35.6171 26.1091 35.3417 26.1381 34.6309 26.0138C34.809 26.3986 34.964 26.7341 35.1586 27.1558C35.0451 27.2647 34.8956 27.5302 34.7482 27.5294C33.8174 27.5224 32.8379 27.7585 32.0082 27.0978C31.7833 26.9185 31.5116 26.778 31.3368 26.5589C30.9379 26.0594 30.5809 25.5263 30.2168 24.9995C30.0374 24.7398 29.8842 24.4614 29.7119 24.1963C29.4451 23.7859 29.5242 23.1944 29.0351 22.9007C29.1092 22.4028 28.8284 22.0263 28.649 21.5968C28.4051 21.0132 28.5563 20.4548 29.1738 20.1193Z" fill="black"/>
<path fill-rule="evenodd" clip-rule="evenodd" d="M13.672 45.0301C13.672 44.9178 13.6451 44.7617 13.6816 44.6217C13.706 44.5281 13.8663 44.4643 13.8804 44.3744C13.8957 44.2763 13.7806 44.1636 13.7793 44.0567C13.7785 43.9619 13.9119 43.8455 13.8858 43.7755C13.8381 43.6467 13.7313 43.5274 13.6215 43.4379C13.5486 43.3783 13.4273 43.3774 13.2773 43.3368C13.3477 43.5816 13.4045 43.7788 13.4616 43.9764C13.0628 43.7332 12.6196 43.5394 12.8146 42.9533C12.9795 43.0237 13.1415 43.0937 13.3423 43.1799C13.407 42.4745 12.7529 42.8415 12.5011 42.5076C12.8697 42.5511 13.1154 42.2972 13.4861 42.3465C13.658 42.3693 13.8816 42.0039 14.1451 41.7546C14.5108 42.0532 14.9209 42.3875 15.4005 42.7789C15.4473 42.4927 15.4809 42.2889 15.5215 42.0408C16.0636 41.936 16.6195 41.8287 17.1816 41.7202C17.4703 42.0889 17.696 42.4252 17.971 42.7147C18.2096 42.9649 18.5377 43.1318 18.7675 43.3882C19.4162 44.1122 19.7103 45.0264 19.977 45.9306C20.0727 46.2541 20.1779 46.766 19.5595 46.8526C19.5624 47.4465 18.9361 47.5352 18.6536 47.9117C18.2995 48.3831 17.6732 48.4642 16.9973 48.1913C15.9849 47.7825 15.3197 46.9922 14.6732 46.2226C14.3497 45.837 13.9864 45.4733 13.672 45.0301Z" fill="black"/>
<path fill-rule="evenodd" clip-rule="evenodd" d="M32.2878 59.6789C32.4701 59.741 32.6461 59.8007 32.8478 59.8694C32.8888 58.9193 31.9068 58.6529 31.7701 57.7781C31.9689 57.8659 32.1308 57.9032 32.2481 57.9964C32.4361 58.1464 32.5943 58.3327 32.8288 58.5672C32.7488 58.0908 32.6958 57.9815 32.4241 57.6555C33.0181 56.9373 33.0181 56.9373 33.7193 56.9348C34.1049 57.3693 34.4342 57.9417 34.9283 58.2433C35.4739 58.5767 35.6346 59.1458 36.0368 59.5538C36.4211 59.9444 36.6763 60.4762 36.931 60.9753C37.071 61.2487 37.1899 61.5979 37.1443 61.8853C37.0863 62.2486 36.9314 62.7825 36.6746 62.8856C36.2521 63.0559 36.3466 63.3545 36.2136 63.6113C36.0314 63.9622 35.782 64.3035 35.3247 64.3788C35.0576 64.4227 34.7395 64.6265 34.5436 64.5383C34.0668 64.3233 33.5743 64.0495 33.2218 63.6739C32.5566 62.9648 31.9618 62.1848 31.3927 61.3945C31.2498 61.1965 31.3157 60.8486 31.2734 60.4572C31.4631 60.6104 31.5385 60.6709 31.6984 60.7997C31.6156 60.2236 32.1192 60.026 32.2878 59.6789Z" fill="black"/>
<path fill-rule="evenodd" clip-rule="evenodd" d="M26.3491 101.108C26.0405 100.938 25.8918 100.857 25.7477 100.777C25.4938 101.695 25.4308 101.742 24.6807 101.412C24.8787 101.873 25.0373 102.242 25.21 102.642C25.0141 102.756 24.8136 102.873 24.6111 102.99C24.2449 102.625 23.8734 102.253 23.4675 101.847C23.2231 102.397 23.8958 102.652 23.8295 103.183C23.226 103.267 22.876 102.857 22.5285 102.479C22.3388 102.273 22.2361 101.985 22.0406 101.786C21.1691 100.901 20.3862 99.9448 19.6564 98.9424C19.591 98.8526 19.5003 98.7805 19.4191 98.7026C18.9792 98.283 18.5182 97.8775 18.4855 97.1937C18.9245 96.9249 19.1577 97.3391 19.4564 97.5955C19.76 97.093 19.0575 97.0259 19.089 96.6556C19.1159 96.2091 19.9654 96.7787 19.7496 96.0488H20.9728C21.3228 96.2953 21.6777 96.5392 22.0257 96.7923C22.3748 97.0462 22.6055 97.4111 23.033 97.6178C23.448 97.8191 23.723 98.2938 24.0884 98.6156C24.3265 98.8256 24.4777 99.1143 24.8584 99.2088C25.1338 99.2767 25.2809 99.6946 25.6992 99.6408C25.8156 99.6255 26.0256 99.8359 26.0848 99.9854C26.1979 100.27 26.2327 100.586 26.3491 101.108Z" fill="black"/>
<path fill-rule="evenodd" clip-rule="evenodd" d="M18.5874 25.5581C18.9759 25.5838 19.2443 25.3829 19.5997 25.6393C19.4191 25.7014 19.2882 25.7466 19.1453 25.7959C19.2787 26.2486 19.427 26.6984 19.5359 27.1574C19.5637 27.275 19.502 27.5074 19.4204 27.5417C18.9672 27.7331 18.8301 28.2206 18.4772 28.4878C18.3211 28.6062 18.087 28.6448 17.8828 28.6679C17.7805 28.6791 17.66 28.5246 17.5577 28.5354C17.433 28.5487 17.3187 28.6576 17.1874 28.7321C16.9936 28.0471 17.0035 28.0193 16.2401 27.7592C15.7833 27.6035 15.6884 27.1545 15.3645 26.872C15.292 27.0265 15.222 27.1756 15.1437 27.3429C15.0298 27.2236 14.838 27.1151 14.8385 27.0074C14.8443 25.6617 14.843 25.6314 14.2288 24.825C13.8825 25.4335 14.546 25.7855 14.5821 26.3807C14.4176 26.355 14.172 26.3741 14.1434 26.3041C13.8547 25.6024 13.4149 24.9397 13.8659 24.0981C14.0059 23.8367 14.0312 23.6996 14.3456 23.6942C14.5394 23.6913 14.7478 23.5774 14.9205 23.4681C15.3682 23.1852 15.7994 22.877 16.2778 22.551C16.3872 22.7142 16.4882 22.8654 16.4638 22.8285C16.8411 23.0916 17.2346 22.3833 17.2976 23.1218C17.3158 23.3314 17.7843 22.8314 17.7843 23.3803C17.7843 23.5923 18.174 23.8048 18.3699 24.0007C18.2999 24.1821 18.2337 24.3553 18.167 24.5284C18.2225 24.5669 18.278 24.6055 18.3339 24.644C18.4321 24.4572 18.5302 24.2704 18.6541 24.0355C18.8558 24.3785 18.973 24.5769 19.1267 24.8374C18.9598 25.0603 18.7738 25.3092 18.5874 25.5581Z" fill="black"/>
<path fill-rule="evenodd" clip-rule="evenodd" d="M5.63757 72.9608C5.79911 73.3344 5.91675 73.6065 6.08491 73.9946C6.19178 73.7117 6.24107 73.5821 6.29326 73.4446C6.34379 73.4756 6.42663 73.4972 6.4374 73.5378C6.53929 73.925 6.7232 74.256 7.00278 74.5501C7.17012 74.7261 7.29107 74.9527 7.40497 75.1709C7.60586 75.5574 7.89083 75.8212 8.35225 75.9033C8.42474 75.7566 8.49929 75.605 8.53408 75.5346C8.74781 75.6945 8.98018 75.8689 9.15331 75.9985C9.15331 76.1393 9.16823 76.1998 9.15124 76.211C8.94663 76.344 8.73746 76.4695 8.54651 76.5863C8.60201 76.8949 8.65172 77.1744 8.72669 77.5932C8.38829 77.4288 8.20314 77.3385 7.93639 77.2084C7.78852 77.5058 7.64024 77.8049 7.48077 78.1263C7.32917 78.1433 7.15148 78.164 6.93402 78.1884V78.6904C6.36657 79.1154 5.90225 79.0582 5.41018 78.6096C4.8742 78.1209 4.26988 77.7079 3.72314 77.126C3.95302 76.974 4.17503 76.8273 4.41858 76.6666C4.29432 76.211 4.07107 75.8043 3.74923 75.4066C3.4274 75.0086 3.25095 74.4925 3.01941 74.0443C3.35036 73.6363 3.61172 73.9383 3.91533 74.0659C3.92817 73.952 3.98077 73.8306 3.94473 73.7486C3.71817 73.2391 3.81633 72.9873 4.29639 72.9653C4.74704 72.9442 5.19935 72.9608 5.63757 72.9608Z" fill="black"/>
<path fill-rule="evenodd" clip-rule="evenodd" d="M9.71303 57.105C9.99386 57.1874 10.2871 57.2731 10.6475 57.3788C10.8003 57.0147 10.8455 56.6651 10.5232 56.34C10.9192 55.98 11.1826 56.5226 11.5707 56.4638C11.6068 56.2679 11.6453 56.0616 11.6826 55.8595C11.9866 55.5339 12.2608 56.1345 12.6282 55.8512C13.0039 55.5613 13.0987 56.1871 13.4181 56.2588C13.5974 56.2989 13.7652 56.4858 13.8932 56.6431C14.3173 57.1634 14.3836 57.8994 14.9547 58.3538C15.0914 58.4623 15.0185 58.8355 15.0492 59.1673C14.4159 58.8562 14.3774 59.8611 13.7672 59.6229C13.5796 59.9265 13.7569 60.477 13.0705 60.5429C12.9981 60.4194 12.8846 60.226 12.723 59.9501C12.5855 60.2372 12.5188 60.3763 12.4505 60.5197C12.0661 60.6108 11.8901 60.2794 11.7637 60.0686C11.3442 59.3665 10.8007 58.8293 10.0978 58.4093C9.6654 58.1508 9.42806 57.7296 9.71303 57.105Z" fill="black"/>
<path fill-rule="evenodd" clip-rule="evenodd" d="M4.2169 27.0933C3.68382 27.5108 3.29075 27.819 2.78335 28.217H1.83442C1.46495 27.6827 1.34483 26.9798 0.800155 26.5387C0.742996 25.7948 0.228558 25.3338 -0.218365 24.8152C-0.360436 24.6499 -0.329785 24.3359 -0.390259 24.0286C-0.227064 23.983 -0.0655251 23.9864 0.018972 23.9072C0.885895 23.0966 1.7027 23.5523 2.39359 24.1052C2.98341 24.577 3.48128 25.2012 3.89921 25.8366C4.13613 26.1965 4.12992 26.7164 4.2169 27.0933Z" fill="black"/>
</svg>
