<svg width="112" height="257" viewBox="0 0 112 257" fill="none" xmlns="http://www.w3.org/2000/svg">
<path fill-rule="evenodd" clip-rule="evenodd" d="M34.2941 43.2077C34.2496 43.3254 34.2051 43.4431 34.1606 43.5609C34.6672 43.7705 35.1738 43.9801 35.6804 44.1898C35.7334 44.0505 35.7861 43.9108 35.8394 43.7718C35.3239 43.5834 34.8092 43.3957 34.2941 43.2077ZM137.589 111.704C137.677 111.603 137.767 111.501 137.856 111.399C137.412 110.955 136.973 110.506 136.516 110.076C136.478 110.04 136.286 110.099 136.231 110.167C136.162 110.253 136.099 110.464 136.14 110.499C136.611 110.914 137.103 111.306 137.589 111.704ZM143.684 95.2045C143.619 95.2814 143.553 95.3585 143.487 95.4351C144.153 96.0045 144.819 96.5732 145.484 97.1423C145.565 97.0478 145.645 96.9529 145.726 96.8584L143.684 95.2045ZM132.79 211.31L132.836 211.243C132.276 210.563 131.719 209.882 131.156 209.204C131.066 209.096 130.966 208.99 130.851 208.915C130.814 208.891 130.709 208.97 130.636 209.002C130.712 209.129 130.767 209.278 130.868 209.381C131.503 210.03 132.148 210.668 132.79 211.31ZM104.606 103.043C104.55 103.113 104.495 103.183 104.438 103.253C105.26 103.918 106.081 104.583 106.903 105.248C106.961 105.175 107.019 105.102 107.078 105.03C106.254 104.367 105.43 103.706 104.606 103.043ZM67.9976 25.7611C68.0464 25.6326 68.0948 25.5044 68.1432 25.3755C67.2654 25.11 66.3882 24.8437 65.5101 24.5779C65.4663 24.727 65.4224 24.8761 65.3793 25.0253C66.2522 25.2709 67.1254 25.5162 67.9976 25.7611ZM158.815 67.1465C158.759 67.2855 158.703 67.4248 158.647 67.5641C159.181 67.9131 159.704 68.2813 160.259 68.5956C160.373 68.6601 160.622 68.5551 160.766 68.4612C160.812 68.4311 160.764 68.0972 160.679 68.0524C160.069 67.7286 159.439 67.4434 158.815 67.1465ZM116.501 168.627C116.577 168.528 116.653 168.429 116.728 168.33C115.539 167.365 114.349 166.4 113.16 165.434C113.092 165.516 113.024 165.598 112.956 165.68C114.138 166.662 115.319 167.644 116.501 168.627ZM139.156 183.391C139.058 183.487 138.96 183.583 138.861 183.679L141.239 186.352C141.347 186.25 141.454 186.147 141.561 186.046C140.76 185.161 139.958 184.276 139.156 183.391ZM145.874 148.61C145.942 148.508 146.01 148.407 146.078 148.306C145.088 147.493 144.099 146.68 143.109 145.868C143.015 145.993 142.92 146.118 142.826 146.243C143.842 147.032 144.858 147.821 145.874 148.61ZM168.486 75.3188L168.717 75.0955C167.989 74.478 167.273 73.8455 166.52 73.2597C166.411 73.1747 166.126 73.3156 165.922 73.3523C166.001 73.5106 166.038 73.7294 166.165 73.816C166.927 74.3334 167.71 74.8207 168.486 75.3188ZM138.965 84.4216C139.008 84.3533 139.051 84.2849 139.093 84.2176C137.753 83.3299 136.412 82.4427 135.071 81.5554C134.998 81.6718 134.924 81.7879 134.851 81.9046C136.222 82.7432 137.593 83.5824 138.965 84.4216ZM77.8268 36.143C77.855 36.0292 77.8831 35.9154 77.9109 35.8019L71.7761 32.9265C71.7244 33.037 71.6734 33.1469 71.622 33.2565C73.6906 34.2183 75.7589 35.1805 77.8268 36.143ZM50.1537 117.496C50.4984 116.687 50.0998 115.506 49.4993 115.284C49.3188 115.217 49.1919 115.014 49.029 114.886C48.8118 114.715 48.5839 114.557 48.3602 114.394C48.3579 114.679 48.2402 115.045 48.3736 115.235C48.9031 115.992 49.5111 116.694 50.1537 117.496ZM128.293 128.117C128.222 128.177 128.152 128.236 128.081 128.297L132.268 132.483C132.331 132.415 132.393 132.347 132.455 132.279L128.293 128.117ZM117.141 178.178C117.109 178.209 117.077 178.24 117.045 178.271L125.15 186.375C125.181 186.344 125.213 186.313 125.245 186.282L117.141 178.178ZM170.157 76.2166L169.786 76.6104C170.786 77.7482 171.774 78.8951 172.798 80.011C172.908 80.1314 173.217 80.0709 173.434 80.0941C173.45 79.8802 173.564 79.5689 173.465 79.4671C172.381 78.3646 171.265 77.2955 170.157 76.2166ZM117.225 235.555C117.18 235.591 117.135 235.628 117.091 235.664C119.979 237.868 122.86 240.081 125.766 242.26C126.08 242.496 126.541 242.534 126.934 242.665C126.64 242.496 126.347 242.328 126.054 242.159C126.019 242.138 125.992 242.102 125.959 242.077C123.048 239.902 120.136 237.728 117.225 235.555ZM52.4369 39.6199C51.387 38.281 46.7956 36.489 45.8723 36.9904C48.0272 37.8535 50.0841 38.678 52.4369 39.6199ZM52.1769 34.3541C51.3972 33.8582 50.2201 35.2884 49.8296 33.6565C49.6789 33.7143 49.5297 33.7752 49.377 33.8278C49.3014 33.8537 49.2151 33.8883 49.1422 33.8749C48.995 33.8475 48.7461 33.7255 48.7284 33.7542C48.6323 33.9171 48.4868 34.1797 48.5532 34.286C48.7867 34.6582 49.0323 35.1059 49.3943 35.2986C50.6574 35.9703 51.0701 35.7964 52.1769 34.3541ZM170.877 192.021C171.002 191.857 171.128 191.692 171.253 191.529C168.862 189.597 166.471 187.665 164.08 185.734C164.02 185.804 163.961 185.874 163.901 185.943C166.226 187.97 168.552 189.995 170.877 192.021ZM133.919 127.438C134.03 127.335 134.141 127.232 134.252 127.128C131.097 123.76 127.941 120.392 124.786 117.024C127.856 120.472 130.537 124.281 133.919 127.438ZM136.001 102.794C135.919 102.873 135.837 102.951 135.754 103.03C135.966 103.28 136.169 103.536 136.39 103.779C137.909 105.445 139.415 107.123 140.967 108.758C141.246 109.052 141.923 109.425 142.062 109.314C142.642 108.854 142.457 108.316 141.917 107.856C139.939 106.176 137.972 104.483 136.001 102.794ZM44.9853 12.5944C45.019 12.7556 45.0527 12.9162 45.0864 13.0774L59.2095 9.77716C58.0664 9.76179 56.924 9.8962 55.7787 9.99432C55.465 10.0215 54.7704 10.4754 55.0929 9.52435C54.9594 9.49229 54.8113 9.40824 54.6961 9.44095C54.5437 9.48412 54.2929 9.69572 54.2971 9.70259C54.7756 10.4715 54.0525 10.2972 53.748 10.3753C50.8291 11.1246 47.9066 11.8572 44.9853 12.5944ZM146.991 197.469C147.057 197.401 147.124 197.333 147.19 197.265L132.888 183.757C132.752 183.906 132.615 184.055 132.478 184.204C137.315 188.625 142.153 193.048 146.991 197.469ZM200.362 144.65C200.44 144.598 200.517 144.546 200.595 144.493C200.516 143.287 200.167 142.02 200.421 140.888C200.836 139.039 200.634 137.258 200.454 135.446C200.441 135.316 200.275 135.201 200.18 135.079C200.058 135.211 199.848 135.33 199.827 135.478C199.425 138.284 198.581 141.1 199.923 143.885C200.05 144.149 200.215 144.395 200.362 144.65ZM171.516 199.219C166.15 194.998 161.09 191.017 156.03 187.037C160.598 191.66 165.455 195.914 171.516 199.219ZM142.255 166.271C142.484 166.427 142.641 166.566 142.824 166.653C143.11 166.787 143.413 166.886 143.709 167C143.625 166.667 143.64 166.248 143.44 166.013C140.975 163.124 138.483 160.259 135.979 157.405C135.85 157.258 135.484 157.15 135.341 157.229C135.19 157.312 135.043 157.735 135.124 157.848C135.653 158.593 136.21 159.324 136.823 160.003C137.502 160.754 138.301 161.4 138.956 162.17C140.108 163.525 141.19 164.94 142.255 166.271ZM161.327 184.727C161.094 184.393 160.907 184.013 160.622 183.731C157.216 180.368 153.802 177.013 150.366 173.681C150.131 173.453 149.707 173.42 149.371 173.297C149.494 173.617 149.541 174.004 149.754 174.246C153.191 178.169 157.086 181.601 161.327 184.727ZM119.922 94.0703C119.78 94.243 119.639 94.416 119.497 94.5887C120.959 95.8387 122.428 97.0808 123.879 98.3426C124.539 98.9162 125.196 99.4987 125.796 100.133C126.601 100.984 127.28 101.965 128.137 102.755C129.64 104.141 131.278 105.38 132.779 106.769C133.502 107.437 134.016 108.326 134.677 109.069C134.835 109.246 135.203 109.238 135.474 109.314C135.494 109.136 135.596 108.901 135.52 108.789C135.064 108.127 134.623 107.438 134.07 106.862C133.176 105.929 132.185 105.091 131.26 104.186C130.14 103.091 129.072 101.942 127.936 100.866C126.722 99.7159 125.478 98.5931 124.201 97.5141C122.803 96.3328 121.351 95.2153 119.922 94.0703ZM125.533 84.1139C125.861 84.5518 126.106 85.1271 126.54 85.4237C130.675 88.2452 134.864 90.9865 138.989 93.8208C140.92 95.1479 142.743 96.6331 144.628 98.027C144.78 98.1385 145.042 98.0983 145.254 98.129C145.225 97.9318 145.253 97.6957 145.153 97.5465C144.992 97.3071 144.767 97.0988 144.534 96.9241C141.821 94.8886 139.113 92.8461 136.379 90.8394C134.876 89.7362 133.371 88.6236 131.784 87.6496C129.772 86.4153 127.676 85.3174 125.533 84.1139ZM88.4344 24.1514C94.5015 28.5878 100.569 33.0243 106.637 37.461C101.609 31.5885 95.2681 27.5295 88.4344 24.1514ZM125.044 90.1398L124.776 90.5041C125.029 90.735 125.256 91.0071 125.541 91.19C126.841 92.0288 128.212 92.7673 129.458 93.6785C134.156 97.1174 138.814 100.612 143.497 104.071C143.65 104.185 143.921 104.14 144.137 104.17C144.093 103.948 144.127 103.64 143.992 103.52C142.505 102.189 141.084 100.757 139.465 99.6047C135.967 97.1155 132.375 94.7561 128.796 92.3808C127.583 91.5765 126.297 90.8838 125.044 90.1398ZM172.582 206.34C163.736 200.547 155.746 193.664 147.765 186.77C155.184 194.377 163.126 201.319 172.582 206.34ZM125.803 93.3256C126.197 93.8293 126.322 94.1177 126.541 94.2472C128.55 95.4361 129.674 97.6325 132.026 98.5708C133.785 99.2724 135.176 100.923 136.687 102.201C137.006 102.471 137.136 102.965 137.353 103.356C138.797 102.457 138.359 105.063 139.732 104.65C140.016 104.564 140.618 105.789 141.185 106.281C141.503 106.556 142.05 106.567 142.494 106.698C142.472 106.334 142.59 105.854 142.402 105.627C141.854 104.965 141.215 104.366 140.556 103.808C136.032 99.9772 131.21 96.5667 125.803 93.3256ZM150.441 201.969C150.513 201.889 150.584 201.809 150.656 201.73C149.793 200.974 148.905 200.247 148.072 199.46C142.788 194.467 137.532 189.444 132.219 184.482C131.625 183.926 130.734 183.688 129.98 183.303C129.901 183.445 129.821 183.588 129.742 183.731C136.138 190.382 143.125 196.362 150.441 201.969ZM188.58 84.3494C172.95 70.0569 156.566 56.7499 138.152 46.0906C156.333 57.0534 172.584 70.5354 188.58 84.3494ZM189.577 96.5124C189.654 96.4352 189.732 96.3587 189.808 96.2821C189.195 95.195 188.586 94.1053 187.962 93.0254C187.91 92.9367 187.716 92.9407 187.636 92.8569C186.548 91.7142 185.468 90.565 184.39 89.4137C184.034 89.0337 183.686 88.6468 183.34 88.2573C182.71 87.5459 182.134 86.7764 181.444 86.1285C180.551 85.2896 179.574 84.5381 178.622 83.7633C177.795 83.0899 176.966 82.4168 176.108 81.783C175.688 81.4716 175.21 81.2309 174.739 80.9961C174.589 80.9209 174.287 80.8908 174.217 80.9745C174.117 81.0939 174.091 81.3837 174.171 81.52C174.315 81.766 174.554 81.9596 174.765 82.1624C176.044 83.3865 177.343 84.5907 178.603 85.8342C179.414 86.6348 180.147 87.5149 180.958 88.3162C182.135 89.4792 183.349 90.6039 184.549 91.743C186.224 93.3334 187.901 94.9223 189.577 96.5124ZM122.173 197.763C122.127 197.802 122.081 197.841 122.035 197.881C122.574 198.674 123.033 199.535 123.663 200.247C126.733 203.716 130.267 206.697 133.747 209.736C135.071 210.893 136.213 212.256 137.497 213.463C138.274 214.193 139.119 215.246 140.016 215.336C140.841 215.418 141.288 215.75 141.769 216.17C142.22 216.566 142.464 217.208 142.932 217.568C143.489 217.998 144.187 218.246 144.825 218.569C144.989 218.653 145.158 218.727 145.324 218.804C145.319 218.572 145.41 218.247 145.29 218.123C144.8 217.616 144.254 217.16 143.714 216.703C140.096 213.645 136.424 210.648 132.868 207.52C129.244 204.334 125.733 201.021 122.173 197.763ZM139.439 182.218C142.071 186.758 160.414 203.293 167.024 205.368C166.673 205.089 166.452 204.907 166.225 204.731C161.716 201.241 157.104 197.874 152.727 194.225C148.675 190.847 144.587 187.471 141.238 183.329C140.883 182.89 140.229 182.693 139.439 182.218ZM115.413 178.13C124.122 188.528 135.061 199.208 146.694 208.052C136.201 198.015 125.155 187.448 115.413 178.13ZM145.384 214.8C140.28 210.274 135.145 205.931 130.257 201.325C125.33 196.683 120.65 191.781 115.862 186.993C115.776 187.079 115.69 187.166 115.604 187.253C116.922 191.01 140.428 212.781 145.384 214.8ZM200.335 129.298C200.413 129.98 200.491 130.661 200.598 131.6C201.025 130.688 201.308 130.083 201.556 129.554C201.141 129.469 200.717 129.382 200.292 129.295C201.468 128.76 201.774 128.128 200.889 126.739C200.687 127.642 200.502 128.468 200.335 129.298ZM43.3027 114.635C43.0865 114.368 42.8703 114.103 42.6554 113.836C42.4501 113.581 42.2656 113.305 42.0347 113.074C41.8496 112.889 41.4833 112.582 41.4136 112.632C40.7406 113.113 40.2882 113.365 39.8421 112.295C39.6469 111.827 38.8688 111.55 38.304 111.302C37.5456 110.967 37.7274 110.699 38.2213 110.282C38.3747 110.152 38.3609 109.824 38.4234 109.587C38.256 109.617 38.0669 109.713 37.9253 109.665C37.3065 109.458 36.5353 109.37 36.121 108.945C34.5577 107.342 33.2118 105.519 31.5982 103.973C29.1767 101.654 26.5044 99.5952 24.1064 97.2535C19.3086 92.5681 13.5495 88.8787 9.57848 83.3443C7.9671 81.0991 6.22654 78.887 5.02005 76.4265C3.85509 74.0502 3.22846 71.3952 2.49979 68.8246C1.32437 64.6815 0.354015 60.489 0.446242 56.1386C0.569215 50.3485 1.11473 44.6388 3.63008 39.2932C4.6459 37.1353 5.45437 34.8741 6.56831 32.7718C7.34178 31.3115 8.25622 29.7763 9.49868 28.7471C11.6212 26.9882 13.0472 24.7407 14.6121 22.5819C19.7472 15.4989 26.4674 10.4571 34.4183 6.94555C39.1848 4.83999 44.0807 3.13148 49.1415 1.89C55.921 0.226941 62.7871 -0.330354 69.729 0.408782C73.3678 0.79601 76.9837 1.29444 80.42 2.75734C84.135 4.33863 88.0325 5.5098 91.6892 7.20752C97.7007 9.99759 103.568 13.1275 108.34 17.8475C111.803 21.273 115.03 24.9356 118.407 28.4495C120.352 30.4736 122.405 32.3921 124.376 34.3907C128.528 38.5995 133.703 41.3775 138.677 44.3703C149.271 50.7465 159.448 57.6816 168.96 65.5861C174.708 70.3633 180.645 74.9306 186.185 79.9374C193.66 86.694 199.678 94.5877 202.786 104.35C204.429 109.511 204.898 114.861 204.895 120.269C204.894 125.159 205.227 130.057 205.034 134.936C204.887 138.615 205.571 142.15 206.09 145.719C206.453 148.222 207.09 150.689 207.688 153.151C209.218 159.447 212.518 164.979 215.289 170.745C217.389 175.116 219.249 179.603 221.183 184.052C221.295 184.311 221.102 184.7 221.066 185.03C221.056 185.116 221.069 185.239 221.123 185.292C221.95 186.111 222.138 187.088 222.131 188.239C222.126 189.001 222.743 189.751 222.824 190.533C223.192 194.107 223.745 197.695 223.697 201.271C223.656 204.378 223.105 207.524 222.401 210.564C221.683 213.656 220.676 216.711 219.475 219.65C218.257 222.632 216.737 225.503 215.188 228.333C212.114 233.946 208.045 238.811 203.13 242.862C198.114 246.996 192.419 250.08 186.314 252.334C183.9 253.226 181.419 253.955 178.933 254.623C177.621 254.975 176.224 255.001 174.878 255.239C173.949 255.403 173.049 255.735 172.12 255.894C166.825 256.801 161.543 256.473 156.267 255.684C155.323 255.543 154.366 255.494 153.416 255.386C153.125 255.353 152.832 255.288 152.556 255.192C150.099 254.338 147.65 253.458 145.184 252.629C144.81 252.503 144.294 252.737 143.96 252.572C142.885 252.04 141.889 251.328 140.598 251.475C140.701 250.521 139.749 250.987 139.734 250.958C138.981 249.559 137.459 250.358 136.452 249.773C136.055 249.542 135.526 249.453 135.241 249.135C134.927 248.784 133.714 249.11 134.327 248.023C133.875 247.915 133.421 247.813 132.97 247.697C132.439 247.56 131.911 247.409 131.448 247.017C131.703 247.056 131.958 247.095 132.212 247.134C124.808 242.624 117.537 237.976 111.94 231.173C111.831 231.295 111.722 231.417 111.613 231.539C114.997 234.736 118.382 237.934 121.767 241.131C121.762 241.148 121.756 241.164 121.751 241.18C120.27 239.98 118.741 238.834 117.316 237.57C110.972 231.939 106.23 225.088 102.583 217.501C99.9862 212.097 97.7508 206.52 95.3306 201.03C94.0845 198.203 92.7502 195.415 91.5312 192.577C90.9955 191.33 90.7349 189.965 90.1969 188.72C89.4689 187.036 88.578 185.422 87.7875 183.765C87.1249 182.375 86.2585 181.012 85.9825 179.543C85.8641 178.912 85.5789 178.681 85.333 178.261C85.1861 178.011 85.3568 177.585 85.3402 177.241C85.332 177.076 85.2077 176.77 85.1554 176.774C84.2305 176.848 84.2007 176.104 83.9011 175.531C82.5651 172.977 81.2111 170.431 79.795 167.921C78.026 164.786 76.2825 161.632 74.3594 158.593C72.1993 155.179 69.9073 151.844 67.5679 148.548C65.2834 145.331 62.8875 142.19 60.5007 139.046C58.5439 136.469 56.5021 133.956 54.5529 131.375C53.765 130.332 53.1587 129.153 52.395 128.09C52.0781 127.647 51.3975 127.425 51.1754 126.962C50.6051 125.775 49.3371 125.074 49.0735 123.637C48.9809 123.135 48.0407 122.84 47.6554 122.325C47.2502 121.783 47.0467 121.089 46.7491 120.465C46.7047 120.372 46.6409 120.241 46.5604 120.218C45.4121 119.899 45.1067 119.158 45.5315 118.43C45.0279 117.99 44.5795 117.634 44.1752 117.233C43.8011 116.862 43.5323 116.361 43.1136 116.064C42.1858 115.405 42.7209 115.04 43.3187 114.643C43.2742 114.976 43.0688 115.502 43.198 115.603C43.6621 115.97 44.2348 116.201 44.778 116.46C44.8434 116.491 45.0606 116.384 45.0658 116.328C45.0795 116.18 45.0681 115.959 44.9736 115.884C44.4317 115.448 43.8626 115.047 43.3027 114.635Z" fill="#3734A9"/>
</svg>
