<svg width="61" height="171" viewBox="0 0 61 171" fill="none" xmlns="http://www.w3.org/2000/svg">
<path fill-rule="evenodd" clip-rule="evenodd" d="M4.45617 54.0449C4.38203 53.7674 4.24038 53.6179 3.97901 53.6684C3.52919 53.755 3.27736 54.0317 3.25168 54.4964C3.23759 54.7511 3.38754 54.8004 3.59961 54.7627C4.03535 54.6853 4.23748 54.3452 4.45617 54.0449ZM2.15529 135.872C2.59972 134.622 2.88759 133.333 3.2612 132.066C2.5289 133.227 2.13251 134.489 2.15529 135.872ZM5.44901 51.4533C7.30298 49.4543 9.23771 47.5345 11.2027 45.6445C8.81481 47.1186 6.97038 49.1267 5.44901 51.4533ZM41.9874 31.6694C45.815 29.938 48.9985 27.3443 52.0371 24.5492C48.8672 26.9309 45.7015 29.315 42.3175 31.3918C42.1965 31.4664 42.0971 31.5762 41.9874 31.6694ZM85.763 127.863C84.6504 131.664 82.4419 134.888 81.3302 138.577C82.7285 137.591 86.3391 129.101 85.763 127.863ZM40.8682 165.652C41.6146 165.652 42.368 165.717 43.1065 165.641C46.1327 165.33 49.1191 164.756 52.105 164.19C56.5353 163.351 60.6219 161.469 64.8144 159.924C66.7487 159.211 68.599 158.238 69.9095 156.522C74.2404 150.852 77.7271 144.747 80.2024 138.008C82.1781 132.631 84.7487 127.474 86.8603 122.143C88.368 118.337 89.3301 114.35 89.7613 110.258C90.1204 106.849 89.9187 103.43 89.9432 100.014C89.963 97.2051 89.9133 94.398 90.0902 91.5798C90.2145 89.595 89.7692 87.5273 89.599 85.494C89.2987 81.9136 89.3529 78.3776 90.441 74.9045C91.445 71.7002 92.8061 68.6492 94.4961 65.7668C97.9169 59.9307 102.205 54.7317 106.703 49.712C109.119 47.0163 111.489 44.2942 113.487 41.2726C117.163 35.7128 118.926 29.5723 118.774 22.9235C118.656 17.7257 116.379 13.6901 111.895 10.9481C104.1 6.18231 95.8708 4.65722 87.0367 7.55953C80.1949 9.8074 74.1033 13.3791 68.5306 17.9154C65.0551 20.7448 61.8819 23.9122 58.4158 26.7499C53.6952 30.6156 48.8991 34.3662 43.3393 36.9947C39.0366 39.0293 34.5139 40.4604 29.9652 41.8057C26.082 42.9543 22.3791 44.5046 18.8807 46.5396C14.8431 48.8881 11.4334 51.8927 9.07327 55.9863C8.79286 56.4738 8.78209 56.4676 8.14339 56.4808C7.94955 56.485 7.93753 56.6461 7.87251 56.7753C7.28185 57.9537 6.89623 59.1831 6.88049 60.5156C6.86972 61.4156 7.21724 62.703 6.90907 63.1362C5.91955 64.5263 6.66469 65.8728 6.84694 67.0442C7.07351 68.4972 7.45416 70.0049 7.89943 71.4608C9.01653 75.1157 10.3001 78.7052 12.1206 82.0627C13.7898 85.1427 15.4068 88.2501 15.8885 91.7385C16.0277 92.7495 17.2463 93.9039 15.9457 94.9837C15.9453 94.9841 16.0368 95.0848 16.0758 95.1449C16.7662 96.2089 17.115 97.4101 17.1676 98.644C17.2185 99.8228 17.6398 100.925 17.6903 102.09C17.7719 103.97 18.4694 105.798 18.0664 107.73C17.8833 108.608 17.926 109.541 17.9243 110.449C17.9206 112.471 17.2355 114.397 17.1295 116.424C17.0897 117.183 16.4266 118.148 16.0613 119.017C14.7516 122.134 12.4283 124.508 10.39 127.108C8.47227 129.554 6.31759 131.952 6.11588 135.305C6.03469 136.658 5.63209 138.085 6.33002 139.355C8.20759 142.767 9.19505 146.635 11.771 149.693C13.7757 152.074 15.1219 154.959 17.5644 157.027C19.9531 159.05 22.2337 161.228 24.9931 162.723C26.3475 163.456 27.721 164.207 29.3111 164.558C33.1317 165.401 36.9751 165.706 40.8682 165.652ZM72.4874 8.19962C72.6983 8.13583 72.9265 8.10394 73.1174 8.00246C77.887 5.46589 82.8578 3.45702 88.1298 2.22352C88.3203 2.17879 88.5816 2.18542 88.6947 1.89258C88.3381 1.94352 88.003 1.98329 87.6708 2.04086C83.2935 2.80216 79.236 4.47264 75.2949 6.45086C74.3141 6.94335 73.2405 7.32566 72.5073 8.22281C71.3322 8.30483 70.6148 9.29642 69.598 9.70441C69.4199 9.77565 69.2277 10.0996 69.4994 10.3746C69.5897 10.4657 69.7144 10.5245 69.7703 10.4173C70.3622 9.28855 71.7978 9.20033 72.4874 8.19962ZM59.1635 25.3689C60.5278 24.5202 61.6135 23.3609 62.697 22.2003C61.5302 23.2677 60.1203 24.0683 59.1854 25.3921C58.1893 25.745 57.5526 26.554 56.8414 27.2672C57.7452 26.7959 58.521 26.1646 59.1635 25.3689ZM89.2701 133.903C88.4781 136.07 87.7197 138.223 86.1168 140.007C85.1479 141.085 84.3755 142.382 83.7364 143.69C83.5048 144.164 83.0794 144.308 82.8371 144.732C82.2717 145.722 82.0642 146.841 81.3402 147.803C79.7082 149.972 78.0974 152.15 76.3938 154.268C75.2697 155.666 74.2176 157.134 73.0495 158.499C70.8729 161.041 68.0949 162.747 65.0111 163.961C61.4478 165.364 57.9179 166.886 54.2755 168.049C47.4875 170.217 40.5592 171.09 33.389 170.235C29.0693 169.72 24.8622 168.904 21.1601 166.698C15.2395 163.169 10.3585 158.47 6.91114 152.408C6.78191 152.181 6.61582 151.975 6.46049 151.763C5.05138 149.847 3.77937 147.867 3.13239 145.533C2.8118 144.378 2.33836 143.27 1.81564 142.181C0.265286 138.95 0.563097 135.697 1.81523 132.457C3.07564 129.195 5.18061 126.426 7.53369 123.971C10.6779 120.691 12.1533 116.886 12.623 112.489C13.06 108.399 12.3421 104.438 11.6136 100.462C11.1666 98.0227 10.7669 95.5731 10.2869 93.1401C9.51233 89.218 7.70807 85.7222 5.85535 82.2176C3.44345 77.6544 1.59984 72.8505 0.485227 67.7848C-0.447554 63.5459 0.0122095 59.3836 1.4557 55.3869C2.28742 53.0844 3.36848 50.8245 5.12055 48.9594C6.82623 47.1431 8.54724 45.3645 10.5814 43.914C15.4702 40.4268 20.8598 37.9805 26.5741 36.1999C33.0982 34.167 39.452 31.7617 45.0264 27.6665C49.1568 24.6321 53.0867 21.3574 56.8613 17.893C62.0011 13.1757 67.3845 8.78432 73.6058 5.53657C79.6366 2.38864 85.9353 -0.0617722 92.8289 0.0011864C103.205 0.0960385 112.088 3.76255 118.382 12.2967C123.036 18.6092 123.79 25.8424 122.269 33.3941C121.995 34.7576 121.717 36.1208 121.398 37.4744C120.58 40.9516 119.165 44.1488 117.088 47.0814C115.877 48.7904 114.572 50.4269 113.36 52.1176C111.938 54.1021 110.354 55.9204 108.716 57.6932C106.82 59.7464 105.14 61.9495 103.543 64.2305C102.987 65.025 102.105 65.5071 101.567 66.362C99.5332 69.5949 97.4182 72.7796 95.9661 76.3356C95.182 78.255 94.3826 80.1267 94.2281 82.2897C94.134 83.616 94.2148 84.9377 94.0993 86.2557C93.9261 88.2298 94.2666 90.1753 94.5806 92.1046C94.7011 92.8452 93.8031 93.4446 93.9965 93.4963C95.0432 93.7743 94.3072 94.3624 94.3287 94.7899C94.3411 95.0425 94.1808 95.3201 94.238 95.552C95.2097 99.4948 94.7897 103.522 94.8726 107.504C94.9496 111.201 95.2727 114.967 94.2732 118.591C93.9083 119.912 93.6424 121.269 93.2576 122.59C92.7958 124.174 91.9437 125.66 91.8017 127.313C91.6016 129.642 90.4249 131.593 89.5774 133.674C89.531 133.789 89.3591 133.852 89.244 133.943C89.3525 132.703 90.3677 131.779 90.4033 130.504C89.5335 132.353 88.4475 134.104 87.9968 136.142C88.4214 135.396 88.8455 134.65 89.2701 133.903Z" fill="#F9896B"/>
<path fill-rule="evenodd" clip-rule="evenodd" d="M51.0575 43.4705C53.4876 42.0444 55.458 40.0902 57.3024 37.9927C55.2285 39.828 53.1898 41.7027 51.0575 43.4705ZM65.1047 31.2654C65.0239 31.1792 64.9431 31.0931 64.8624 31.0069C62.733 32.9524 60.4263 34.6995 58.5773 36.959L65.1047 31.2654ZM16.1523 134.353C14.9043 135.592 14.336 139.434 15.1549 140.225C15.3885 138.28 15.3947 136.261 16.1523 134.353ZM25.5998 56.9585C22.6719 58.9429 20.0587 61.2194 18.7937 64.6838C20.8071 61.8825 23.019 59.2614 25.5998 56.9585ZM69.103 27.736C73.9984 23.9013 79.132 20.4974 84.8761 18.0818C81.1131 18.58 70.6753 25.4777 69.103 27.736ZM67.3811 119.197C66.2114 121.533 65.4866 124.036 64.7977 126.532C64.0932 129.085 63.1422 131.55 62.3171 134.056C61.5372 136.425 60.4101 138.681 59.4359 140.986C63.6053 134.262 65.1602 126.614 67.3811 119.197ZM25.4967 81.6931C25.5161 81.5494 25.4843 81.3423 25.5663 81.2756C25.7145 81.1547 25.7912 81.339 25.8898 81.4479C26.1689 81.7544 26.0385 82.2171 26.4212 82.524C27.1274 83.0894 27.6132 83.801 27.9649 84.6998C28.2648 85.4661 29.0832 86.0232 29.6412 86.6983C29.7658 86.8487 29.922 87.103 29.7613 87.3167C29.4627 87.7131 29.7021 87.8432 30.0309 87.9364C30.4373 88.0507 30.6522 88.358 30.7902 88.7122C31.288 89.9879 31.9508 91.1995 32.099 92.6048C32.1947 93.5115 32.3409 94.5951 32.6769 95.2565C33.6121 97.0997 33.6461 99.0432 33.5574 100.889C33.4771 102.561 33.1557 104.273 33.2327 105.948C33.299 107.395 32.5712 108.574 32.3687 109.921C32.1235 111.552 30.9927 112.976 30.7699 114.671C30.6324 115.713 29.5331 116.504 29.5426 117.328C29.5641 119.235 27.8754 120.261 27.5772 121.98C27.4824 122.527 27.2583 123.346 26.7828 123.866C25.8057 124.934 25.5199 126.412 24.508 127.476C23.2339 128.815 22.5724 130.609 21.2138 131.938C20.3979 132.737 19.76 133.768 19.0459 134.687C18.3989 135.519 18.4569 136.809 18.2432 137.909C17.9334 139.5 18.8467 140.74 19.2588 142.138C20.2438 145.479 22.2966 148.241 24.6998 150.47C29.3931 154.822 35.0142 156.252 41.2641 153.974C41.8986 153.743 42.5324 153.51 43.1723 153.295C46.925 152.035 50.1669 149.953 53.1782 147.397C57.1189 144.052 58.9848 139.387 61.1681 134.971C61.9319 133.427 62.2289 131.534 62.8054 129.819C63.2002 128.645 63.6251 127.473 63.8969 126.268C64.1706 125.053 64.5438 123.873 64.9075 122.689C65.2703 121.507 65.7815 120.365 66.0689 119.167C66.3249 118.101 66.8489 117.15 67.0696 116.045C67.3645 114.569 67.8463 113.099 68.2472 111.625C69.6886 106.327 70.7668 100.959 71.4163 95.503C71.7762 92.4793 72.0384 89.4271 72.6647 86.4548C74.6876 76.8482 79.1113 68.3604 85.2042 60.7321C87.9276 57.3228 90.8166 54.0448 93.6676 50.739C97.7499 46.006 99.9651 40.3724 101.634 34.4626C102.672 30.7882 102.492 27.1581 101.143 23.6122C100.374 21.5913 99.2286 19.9038 96.8114 19.505C94.5606 19.1334 92.3645 19.6665 90.2363 20.06C88.9709 20.2944 87.5925 20.8963 86.3225 21.5105C83.2761 22.9847 80.1861 24.3768 77.5373 26.5224C76.9065 27.0326 76.1212 27.101 75.4908 27.6109C74.6839 28.2632 74.1202 29.1442 73.24 29.7303C72.7347 30.0663 72.1291 30.099 71.6631 30.5297C68.7082 33.2593 65.3681 35.5553 62.7011 38.6154C61.7753 39.6782 60.6317 40.5484 59.6231 41.5425C55.8361 45.2732 51.429 48.0645 46.4644 49.8883C40.3781 52.1241 34.6982 55.1213 29.3848 58.7832C27.3531 60.1832 25.1769 61.5037 23.7202 63.6323C22.8756 64.867 21.7896 66.1258 21.6579 67.5403C21.4624 69.6324 21.2495 71.8173 21.9619 73.9016C22.1338 74.4044 21.8273 75.1053 21.9341 75.2771C22.3463 75.937 22.5948 76.6834 23.0413 77.3163C24.0056 78.6844 25.3351 79.8537 25.4967 81.6931ZM24.341 122.041C24.6616 121.92 24.7411 121.599 24.8517 121.343C25.9046 118.905 27.0429 116.497 27.7474 113.926C28.1596 112.421 28.8827 110.987 28.8591 109.374C28.1314 112.227 26.8631 114.888 25.9622 117.677C25.4842 119.157 24.59 120.488 24.3651 122.063C23.0781 123.76 22.4465 125.799 21.406 127.625C22.5065 125.827 23.8001 124.128 24.341 122.041ZM72.1105 115.258C72.0657 114.983 72.1088 114.739 71.835 114.601C71.7866 115.024 71.4465 115.427 72.0057 115.798C72.3308 116.013 72.0251 116.362 71.9419 116.622C71.1926 118.962 70.464 121.311 69.7404 123.654C69.052 125.885 68.2298 128.085 67.7137 130.37C67.4548 131.517 66.8986 132.548 66.4773 133.63C66.2835 134.127 66.1203 134.602 66.1203 135.142C66.1199 136.24 66.0437 136.269 65.028 135.691C64.9431 135.643 64.8147 135.672 64.6776 135.664C64.6776 135.786 64.6399 135.907 64.683 135.979C65.3308 137.054 65.1937 138.344 64.4328 139.38C63.9308 140.063 63.474 140.754 63.2569 141.652C62.9309 143.004 62.0044 144.068 60.9283 144.957C60.8305 145.037 60.6081 145 60.5977 145.188C60.5373 146.302 59.6405 146.837 58.9641 147.5C58.3184 148.133 57.5223 148.596 56.9155 149.292C55.8771 150.483 54.709 151.469 53.2859 152.262C52.6289 152.628 51.9616 153.324 51.2302 153.61C48.5275 154.67 45.8774 155.855 43.14 156.843C38.5146 158.512 33.9609 158.022 29.3703 156.908C26.6697 156.253 24.2284 155.045 21.9967 153.386C21.1434 152.751 20.4529 151.979 19.7517 151.194C17.0722 148.2 15.1938 144.772 14.2503 140.875C13.646 138.38 14.027 135.94 15.2771 133.693C15.606 133.102 15.859 132.327 16.9687 132.461C17.4521 132.519 17.9317 131.62 18.3066 131.049C20.957 127.015 23.1121 122.729 24.8476 118.226C26.6747 113.487 28.2689 108.698 28.8844 103.611C29.3314 99.9176 28.8322 96.3757 27.9322 92.8119C27.2115 89.9577 25.722 87.5715 24.0213 85.2478C22.7468 83.5069 21.6069 81.6683 20.3486 79.915C19.9025 79.2937 20.4654 78.8973 20.5975 78.0983C19.9087 79.0348 19.7956 78.8467 19.5024 78.0763C19.2091 77.3063 18.6715 76.5873 18.2469 75.8409C17.339 74.2429 16.82 72.5008 16.8026 70.7056C16.796 70.0247 16.4402 69.4564 16.5321 68.8119C16.6477 67.9992 16.7044 67.1658 16.9343 66.3842C17.3402 65.0021 17.595 63.5449 18.9461 62.6063C19.3193 62.347 19.0977 61.5426 19.5218 61.0874C21.3369 59.1386 23.0458 57.0618 25.3157 55.6167C30.716 52.178 36.3724 49.2492 42.2975 46.7813C46.423 45.0628 50.3616 42.892 53.6131 39.6993C58.3979 35.0015 63.4309 30.5795 68.6088 26.3244C73.5175 22.2909 78.777 18.8294 84.8086 16.6635C87.3411 15.7544 89.9377 15.2147 92.6213 15.0295C96.4518 14.7653 99.3202 16.5086 101.546 19.4043C105.819 24.9658 106.823 31.2248 105.178 37.9555C104.073 42.4824 102.444 46.8232 100.148 50.8865C99.07 52.7935 98.0428 54.7237 96.2646 56.1746C95.4163 56.8667 94.9619 58.0356 94.31 58.975C92.0803 62.1867 89.2754 64.9408 87.0561 68.1719C86.0678 69.6105 85.2324 71.1281 84.3008 72.5927C82.2679 75.7891 80.8799 79.3168 79.3515 82.7568C78.0103 85.7751 77.5253 89.0734 77.0419 92.3422C76.5217 95.8642 75.9708 99.3828 75.3711 102.892C75.0248 104.919 74.7833 107.012 74.0622 108.911C73.5614 110.231 73.5428 111.636 72.9434 112.915C72.5992 113.649 72.9691 114.654 72.1105 115.258Z" fill="#F9896B"/>
<path fill-rule="evenodd" clip-rule="evenodd" d="M59.6331 100.811C59.7457 100.871 59.8588 100.93 59.9715 100.989C60.3335 100.029 61.3623 99.3459 60.8889 98.0342C60.4702 98.9599 60.0518 99.8856 59.6331 100.811ZM38.0623 64.6885C35.7134 65.1296 33.3044 67.3414 33.5492 68.84C34.6866 66.9827 36.3351 65.7927 38.0623 64.6885ZM57.966 50.4915C57.8972 50.4 57.828 50.3089 57.7593 50.2182C54.6296 52.9308 51.4994 55.6438 48.3702 58.3568C48.4364 58.4343 48.5031 58.5117 48.5698 58.5896L57.966 50.4915ZM67.0013 41.86C69.9434 39.6875 72.9671 37.641 76.2169 35.9386C79.5019 34.2176 82.8251 32.5811 86.195 31.0547C79.3483 33.851 72.5827 36.7981 67.0013 41.86ZM45.8613 129.71C46.6529 128.42 47.6134 127.282 48.2591 125.871C49.7209 122.679 51.4174 119.593 52.8083 116.362C54.8814 111.547 57.063 106.783 59.6207 102.201C59.7806 101.914 59.9293 101.626 59.5047 101.209C54.4175 110.532 50.8007 120.44 45.8613 129.71ZM67.2983 46.8335C65.972 47.4271 65.3163 48.7099 64.3645 49.6886C63.1144 50.4151 62.4231 51.7236 61.3106 52.6013C59.3924 54.1144 57.4233 55.579 55.629 57.2308C51.9157 60.6501 47.8155 63.4426 43.2688 65.6403C41.581 66.4567 39.6118 66.6311 38.1696 68.0427C37.2873 68.9059 36.215 69.6038 36.1355 70.9558C36.0174 72.9589 36.3305 74.8944 37.2956 76.695C39.08 80.0235 41.4836 82.9332 43.5844 86.0476C45.7677 89.2842 47.7186 92.5775 48.2156 96.6081C48.6903 100.463 48.4045 104.285 48.1779 108.113C48.132 108.888 47.6072 109.628 47.5786 110.526C47.5392 111.78 47.5264 113.174 46.7299 114.202C45.293 116.057 44.8167 118.319 43.876 120.377C43.5679 121.053 43.7568 122.048 43.164 122.564C42.3729 123.254 42.16 124.162 41.7814 125.029C41.634 125.367 41.4289 125.707 41.1692 125.965C40.3123 126.817 39.7726 127.942 39.1757 128.914C38.0039 130.823 36.6996 132.513 35.0536 134.011C34.5793 134.443 33.83 134.39 33.545 135.064C33.2601 135.736 32.7361 136.233 32.1869 136.697C31.626 137.17 31.3394 137.79 31.1166 138.514C31.5279 138.632 31.7934 138.464 32.0643 138.365C33.7683 137.741 35.2255 136.64 36.8711 135.891C39.7576 134.578 42.1927 132.673 44.1208 130.127C45.5635 128.222 46.5427 126.066 47.5753 123.939C49.6214 119.725 51.7007 115.523 53.6197 111.251C54.6946 108.857 55.8125 106.488 57.0021 104.154C58.9786 100.277 60.7398 96.3008 62.4563 92.3091C63.831 89.1123 64.9688 85.8165 65.7136 82.3993C66.363 79.4159 67.4955 76.5881 68.6026 73.7554C70.7105 68.3617 72.8548 62.9895 76.3299 58.2725C79.4522 54.0344 82.6146 49.8249 85.4362 45.3722C87.542 42.0487 89.3698 38.6088 90.267 34.7447C90.3631 34.3301 90.6704 33.7862 90.3179 33.4814C90.0193 33.2229 89.5322 33.5625 89.1549 33.7116C85.1984 35.2773 81.3898 37.1417 77.7047 39.2744C77.0391 39.6596 76.4476 40.5306 75.4291 40.1048C75.2853 40.0448 74.985 40.2465 75.0724 40.4192C75.381 41.0298 74.7821 41.0223 74.5526 41.1739C73.1033 42.1319 71.6727 43.1132 70.259 44.1243C69.1531 44.915 68.3847 46.042 67.2983 46.8335ZM38.0947 124.951C38.414 124.929 38.5055 124.67 38.6228 124.44C40.1056 121.53 41.2053 118.451 42.5519 115.482C43.1976 114.056 42.9768 112.347 44.0616 111.079C44.2472 110.862 44.1888 110.648 43.9299 110.537C43.5903 110.391 43.4076 110.618 43.3695 110.896C43.222 111.978 42.7051 112.927 42.346 113.935C41.4207 116.531 40.6279 119.164 39.3899 121.653C38.8754 122.688 38.3051 123.778 38.1207 124.976C37.2058 126.188 36.5526 127.538 36.0419 128.962C36.6826 127.603 37.9116 126.546 38.0947 124.951ZM78.2825 61.8601C78.6843 62.5402 78.548 62.9673 78.278 63.6259C77.6198 65.2317 76.2757 66.4934 76.0218 68.2848C75.9315 68.9243 75.4349 69.4073 75.1309 69.9453C74.3567 71.3147 74.208 72.9081 73.5118 74.2423C72.8511 75.5081 72.5678 76.8944 71.8943 78.132C71.5364 78.7889 71.6623 79.607 71.1964 80.244C70.882 80.6731 70.1049 83.3443 70.0147 83.8584C69.7881 85.1531 69.5247 86.4417 69.2633 87.7303C69.2186 87.9515 69.1191 88.1789 68.818 88.1313C68.5074 88.0824 68.357 88.2236 68.4763 88.4995C68.9228 89.5333 68.3897 90.4595 67.9925 91.2713C66.8373 93.6306 65.8341 96.0557 64.8197 98.471C64.6189 98.9498 63.6857 98.8197 64.0183 99.7736C64.186 100.255 63.6438 101.09 63.2686 101.713C62.9032 102.321 62.6576 102.999 62.3267 103.63C59.8891 108.277 57.6491 113.016 55.5267 117.816C54.3496 120.479 52.9446 123.039 51.7045 125.675C51.3913 126.341 51.1863 127.089 50.9759 127.801C50.7825 128.456 50.4987 129.394 49.6993 129.806C49.551 129.882 49.4587 129.949 49.4102 130.101C48.4327 133.18 45.8067 134.79 43.4648 136.593C41.7881 137.884 39.7432 138.646 37.8407 139.539C36.6636 140.09 35.5809 140.968 34.2094 141.162C32.8347 141.357 31.4691 141.605 30.0753 141.633C28.7234 141.661 27.4733 141.344 26.3537 140.567C25.7672 140.16 25.6781 139.643 25.9341 138.99C26.5683 137.37 27.5247 136.014 28.9976 135.051C29.5617 134.682 30.1648 134.362 30.5405 133.759C30.8084 133.328 31.2624 133.87 31.7603 133.381C33.5219 131.648 34.6191 129.541 35.749 127.423C38.0893 123.036 39.8314 118.398 41.5089 113.734C42.2346 111.716 42.6123 109.612 42.9425 107.496C43.1512 106.16 43.2916 104.824 43.3811 103.477C43.4221 102.852 43.6735 102.339 44.4402 102.719C44.8975 102.946 45.0383 102.613 45.2529 102.378C45.4053 102.211 45.3742 102.019 45.2276 101.879C44.96 101.623 44.7277 101.889 44.5185 101.991C43.6603 102.409 43.3799 102.16 43.4234 101.221C43.5443 98.635 43.6097 96.0479 42.9379 93.5055C42.6036 92.2385 42.1344 91.0228 41.5226 89.8746C39.7345 86.5167 37.4249 83.4901 35.3825 80.2929C33.8884 77.9527 32.3518 75.6128 32.0378 72.7565C31.9645 72.0917 31.4368 71.2815 32.3563 70.7418C32.4073 70.7124 32.452 70.618 32.4478 70.5575C32.2697 67.9447 32.3505 67.8793 34.1262 66.0481C35.2785 64.8598 36.6839 64.033 38.1158 63.3749C43.3844 60.9522 47.8242 57.4273 52.1705 53.6552C57.461 49.063 62.2811 43.9393 67.7776 39.6072C73.7992 34.8621 80.687 31.6106 87.998 29.3644C91.8571 28.1789 94.7164 31.0589 93.8751 35.0638C93.0351 39.0625 91.5187 42.8052 89.5045 46.3661C87.192 50.4534 84.5423 54.3258 81.9784 58.2491C81.2751 59.3256 80.6787 60.4933 79.8209 61.4865C79.376 62.0014 79.0459 62.4537 78.2825 61.8601Z" fill="#F9896B"/>
</svg>
