<svg width="99" height="152" viewBox="0 0 99 152" fill="none" xmlns="http://www.w3.org/2000/svg">
<path fill-rule="evenodd" clip-rule="evenodd" d="M20.7492 37.3906C20.8171 37.3515 20.8849 37.313 20.9528 37.2739C21.1169 37.4943 21.2432 37.7648 21.4539 37.9223C21.6836 38.0939 22.0663 38.0912 22.2495 38.2877C22.6322 38.6983 23.1235 38.8833 23.5958 39.1201C23.7533 39.858 24.4411 40.066 24.9395 40.4633C25.3302 40.7751 25.7342 41.0722 26.1067 41.4044C26.2167 41.5024 26.2384 41.6993 26.3005 41.851C25.8939 41.6855 25.6708 41.3144 25.2101 41.4412C24.8681 41.5356 24.9032 41.2314 24.7741 41.0634C24.6664 40.9237 24.1874 40.9609 24.1741 40.8744C24.1018 40.3959 23.7138 40.321 23.4007 40.1228C23.0464 39.8988 22.6685 39.6691 22.4073 39.3533C22.1435 39.034 21.7998 39.058 21.4907 38.9653C21.5674 38.7715 21.641 38.5844 21.7612 38.281H20.7492V37.3906ZM137.275 13.746C138.094 14.1882 138.378 14.9931 138.754 15.7319C139.108 16.4286 139.275 17.2166 139.595 17.9142C139.955 18.6982 140.138 19.516 140.171 20.3156C140.205 21.1515 140.768 21.9599 140.341 22.8313C140.22 22.6238 140.082 22.4393 140.003 22.2322C139.949 22.0921 140.001 21.9151 139.967 21.7635C139.844 21.2131 139.704 20.6668 139.571 20.1191C139.427 19.5284 139.144 18.9639 139.232 18.3293C138.606 17.0206 138.37 15.5496 137.556 14.3185C137.439 14.1425 137.368 13.9372 137.275 13.746ZM13.4475 46.0078C13.2891 46.0238 13.1809 46.0686 13.1397 46.0336C12.4528 45.4531 11.7406 44.8969 11.0997 44.2677C9.77245 42.9634 8.70813 41.4335 7.72052 39.8756C7.27573 39.174 6.75244 38.4658 6.54666 37.5913C6.45398 37.197 6.78348 37.2857 6.82472 37.1008C7.65356 38.7079 8.39194 40.3722 9.56447 41.755C10.7929 43.2038 12.1237 44.5666 13.4475 46.0078ZM22.8781 15.9099C22.6537 16.0558 22.4683 16.1813 22.2776 16.2993C22.0869 16.4177 21.8914 16.5281 21.698 16.6421C22.0133 17.2195 22.0125 17.2141 21.6182 17.4997C21.4643 17.6115 21.2413 17.7503 21.2209 17.9006C21.1397 18.49 20.78 18.145 20.6129 18.1725C20.6497 17.7467 20.6847 17.345 20.7193 16.9436C20.2027 16.6093 20.702 16.2704 20.7357 15.9423C20.757 15.7378 20.9171 15.5307 21.0648 15.3706C21.0936 15.3401 21.3535 15.5236 21.5388 15.6261C21.6745 15.3343 21.7818 15.1032 21.9557 14.7294C21.6053 14.8726 21.4231 14.9471 21.2444 15.0203C21.0297 14.4939 21.6191 14.6957 21.6656 14.4779C21.7206 14.2203 21.6785 13.9418 21.6785 13.5901H23.3105C23.3876 13.383 23.4298 13.2708 23.5335 12.9932C23.597 13.9272 23.597 13.9272 23.189 14.2819C23.1415 14.1418 23.0936 14.0017 23.0435 13.854C22.8266 14.0571 22.6342 14.2376 22.4626 14.3981C22.2466 14.2779 22.1149 14.2048 21.8838 14.0762C21.9894 14.8203 22.5251 14.9591 22.8781 15.2341V15.9099ZM38.7127 114.656C38.8786 114.983 39.103 115.299 39.0538 115.35C38.7119 115.702 38.8968 116.113 38.868 116.491C38.8369 116.891 38.7691 117.325 38.8861 117.691C39.0076 118.069 38.4409 118.37 38.8471 118.714C38.4657 119.018 38.6476 119.442 38.6245 119.817C38.5997 120.219 38.6187 120.623 38.6187 121.026C38.6187 122.557 38.6214 124.089 38.6152 125.62C38.6147 125.773 38.5615 125.925 38.5327 126.077C38.4431 125.437 38.2121 124.842 38.1673 124.249C38.0595 122.835 38.1837 121.41 37.914 119.995C37.8001 119.397 38.0502 118.76 38.0874 118.161C38.1597 116.994 38.4325 115.889 38.7127 114.656ZM38.4708 142.823C38.1649 142.372 37.8691 142.013 37.6584 141.61C36.967 140.288 35.8216 139.184 35.6974 137.584C35.6925 137.522 35.583 137.474 35.5338 137.411C35.1714 136.944 34.9546 136.417 34.9963 135.823C35.0411 135.185 34.8411 134.615 34.5892 134.054C34.4716 133.791 34.4131 133.554 34.7679 133.28C34.9271 133.488 35.136 133.667 35.2193 133.892C35.3493 134.244 35.3652 134.636 35.4797 134.995C35.7972 135.989 35.9852 137.031 36.5404 137.942C36.6158 138.066 36.7005 138.238 36.673 138.363C36.5333 139.003 36.8828 139.569 37.2025 139.95C37.8633 140.739 38.0181 141.812 38.862 142.432L38.4708 142.823ZM128.024 12.2929C128.582 12.0034 129.039 11.7652 129.503 11.5244C129.582 11.5954 129.699 11.7009 129.813 11.8025C129.728 11.8987 129.654 11.9821 129.612 12.03C130.159 12.4588 130.695 12.8797 131.225 13.2961C131.182 13.3497 131.032 13.4841 131.052 13.516C131.229 13.8083 131.453 14.073 131.633 14.3639C132.036 15.0149 132.499 15.658 132.136 16.5143C131.611 16.1533 131.326 15.4309 130.569 15.5001C130.648 15.2983 130.819 15.0611 130.761 14.9719C130.49 14.552 130.225 14.0633 129.824 13.81C129.416 13.5515 129.066 13.1803 128.968 12.842C128.816 12.3204 128.457 12.4819 128.024 12.2929ZM94.4739 96.6942L94.3032 96.523C94.3675 96.4663 94.4371 96.3559 94.4952 96.3616C94.9626 96.406 95.5298 96.4002 95.6917 96.2317C96.3298 95.5674 97.1219 95.8295 97.811 95.9607C98.4492 96.0822 99.0314 96.4964 99.6399 96.7789C99.8323 96.8689 100.023 96.9891 100.225 97.0175C100.311 97.0295 100.417 96.7594 100.563 96.9807C100.658 97.1266 100.736 97.284 100.945 97.6583C100.215 97.3674 99.7348 98.2073 99.1591 97.5732C99.1494 97.5625 98.8736 97.7084 98.8642 97.7962C98.8301 98.1195 98.5591 98.1067 98.4336 98.0326C97.8181 97.6712 97.1343 97.8765 96.4833 97.7736C96.4438 97.5288 96.4083 97.3071 96.3986 97.2455C96.2331 97.4104 96.03 97.6131 95.8624 97.7798C95.909 97.7958 96.0496 97.845 95.9999 97.8277C95.8411 97.9865 95.6371 98.1905 95.462 98.3661C95.3573 97.9865 95.7294 97.3035 94.9657 97.0632C94.5919 97.3714 94.1981 97.414 93.7169 97.1936C93.9936 97.0109 94.234 96.8521 94.4739 96.6942ZM91.2139 100.702C91.5247 101.185 92.0507 100.558 92.3695 100.949C92.7465 100.55 93.2653 100.795 93.7132 100.659C93.9341 100.708 93.488 100.054 94.0551 100.347C94.4117 100.531 94.9017 100.459 95.3842 100.507C95.4388 100.229 95.4875 99.9833 95.5651 99.5917C95.6658 99.8804 95.715 100.021 95.7736 100.188C96.0751 99.9882 96.3732 99.7908 96.7151 99.5651C96.6499 99.3363 96.5802 99.0915 96.5066 98.8329C96.9736 98.5389 97.5111 98.4014 98.245 98.6649C97.7483 98.9008 97.3554 99.087 96.9306 99.2884C97.0556 99.5443 97.163 99.7638 97.2703 99.9837C97.4885 99.8786 97.3324 99.217 97.9102 99.6325C97.8113 99.8534 97.7067 100.085 97.6038 100.315C97.6951 100.363 97.7705 100.432 97.8016 100.416C98.1998 100.206 98.5918 99.9842 98.9856 99.7651C99.3524 100.435 100.026 100.68 100.83 100.923C100.752 100.697 100.695 100.535 100.61 100.289C100.839 100.146 100.934 99.6933 101.428 99.7456C101.358 100.123 101.292 100.476 101.228 100.817C101.623 100.994 101.679 101.1 101.553 101.354C102.113 101.795 102.21 100.946 102.658 100.896C102.701 101.185 102.736 101.406 102.771 101.637C103.014 101.601 103.142 101.287 103.476 101.549C103.942 101.913 104.565 102.075 105.027 102.441C105.494 102.811 105.863 102.629 106.321 102.425C106.337 102.641 106.352 102.831 106.373 103.118C107.006 103 107.497 103.413 108.063 103.593C109.417 104.022 110.718 104.586 112.044 105.082C113.23 105.526 114.388 106.04 115.564 106.51C116.533 106.897 117.502 107.285 118.484 107.635C119.819 108.111 121.103 108.714 122.421 109.231C123.45 109.635 124.481 110.093 125.507 110.538C125.845 110.685 126.149 110.983 126.582 110.875C126.673 110.852 126.817 110.911 126.894 110.98C127.821 111.814 129.141 111.815 130.132 112.512C130.189 112.552 130.284 112.569 130.353 112.556C131.359 112.356 132.095 113.019 132.917 113.379C134.223 113.951 135.564 114.407 136.95 114.738C137.241 114.808 137.554 114.851 137.81 114.992C138.054 115.125 138.312 115.027 138.525 115.121C138.798 115.243 139.076 115.413 139.275 115.632C139.554 115.941 139.736 115.309 140.063 115.629C140.302 115.862 140.776 115.834 141.103 116.004C141.637 116.284 142.312 116.172 142.778 116.657C142.874 116.758 143.197 116.736 143.36 116.658C143.657 116.515 143.766 116.468 143.952 116.844C144.054 117.051 144.552 117.096 144.882 117.149C145.93 117.315 146.872 117.918 147.967 117.881C148.816 118.471 149.845 118.41 150.788 118.66C151.006 118.718 151.217 118.803 151.437 118.845C151.847 118.924 152.262 118.745 152.689 119.058C152.99 119.278 153.537 118.92 153.913 119.317C153.986 119.394 154.309 119.322 154.454 119.225C154.836 118.97 154.65 119.379 154.735 119.424C154.871 119.496 155.083 119.416 155.227 119.481C155.88 119.777 156.565 119.899 157.264 119.809C158.502 119.649 159.684 120.118 160.915 120.088C161.287 120.079 161.668 120.34 162.044 120.058C162.744 120.418 163.444 119.907 164.142 120.061C164.434 120.125 164.782 120.364 164.998 120.272C165.569 120.03 166.145 120.098 166.723 120.051C167.297 120.004 167.866 119.897 168.438 119.816C168.514 119.805 168.632 119.823 168.66 119.781C168.906 119.404 169.303 119.628 169.573 119.533C170.189 119.314 170.865 119.452 171.45 119.102C171.888 118.84 172.294 118.628 172.509 118.358C172.59 118.529 172.666 118.692 172.775 118.924C173.66 118.247 174.969 118.353 175.706 117.189H176.604C176.716 116.989 176.805 116.693 176.893 116.694C177.51 116.697 178.021 116.663 177.976 115.821C177.97 115.691 178.305 115.543 178.709 115.224C178.549 115.69 178.481 115.89 178.36 116.244C178.83 115.932 179.168 115.723 179.488 115.489C179.791 115.269 180.132 115.066 180.352 114.776C180.609 114.439 181.04 114.337 181.263 113.972C181.463 113.645 181.679 113.315 181.95 113.051C182.236 112.775 182.381 112.399 182.761 112.166C183.013 112.012 183.062 111.525 183.206 111.18C183.128 111.096 183.02 110.979 182.915 110.866C182.822 110.949 182.738 111.023 182.544 111.196C182.577 110.944 182.552 110.781 182.621 110.682C182.893 110.285 183.321 110.096 183.74 109.894C183.91 109.812 184.13 109.707 184.19 109.557C184.274 109.349 184.169 109.064 184.256 108.859C184.326 108.693 184.7 108.593 184.698 108.468C184.687 107.837 185.127 107.276 184.963 106.633C185.417 105.606 185.13 104.523 185.204 103.467C185.341 101.507 184.788 99.6582 184.143 97.8591C183.416 95.8311 182.346 93.9725 181.014 92.2572C180.087 91.0625 179.205 89.8399 178.192 88.7072C176.806 87.1578 175.588 85.4659 174.42 83.7444C174.062 83.218 173.885 82.5954 173.497 82.0646C173.132 81.5652 172.913 80.939 172.719 80.3399C172.544 79.8011 172.475 79.2255 172.39 78.6618C172.321 78.2086 172.522 77.7186 172.155 77.3008C172.083 77.2192 172.147 76.9939 172.185 76.8445C172.231 76.6653 172.368 76.499 172.377 76.323C172.513 73.7287 173.922 71.5823 175.905 70.1592C177.114 69.2905 178.408 68.592 179.644 67.7876C181.385 66.6545 183.236 65.7099 184.968 64.5613C186.315 63.6682 187.742 62.8961 189.132 62.0677C190.691 61.1386 192.35 60.367 193.733 59.1603C194.495 59.0362 194.9 58.3337 195.566 58.037C196.31 57.7053 196.809 57.0202 197.491 56.5692C198.272 56.053 198.922 55.339 199.632 54.7141C200.04 54.3545 200.351 53.8964 200.891 53.6675C201.167 53.5514 201.457 53.2702 201.563 52.9948C201.777 52.4383 202.253 52.1451 202.612 51.7367C204.33 49.7788 205.687 47.6249 206.518 45.1273C206.861 44.0949 206.98 42.9986 207.459 42.0119C207.291 41.1347 207.741 40.3196 207.708 39.4509C207.676 38.6056 207.853 37.7227 207.665 36.92C207.384 35.7169 207.419 34.4202 206.734 33.3213C206.509 31.6618 204.89 28.7385 204.154 27.6169C203.291 26.3038 202.122 25.2572 200.958 24.247C200.369 23.7357 199.654 23.2359 198.809 23.0479C198.264 22.9264 197.77 22.6479 197.207 22.5144C196.69 22.392 196.29 22.2851 195.785 22.4882C195.599 22.5632 195.316 22.357 195.074 22.3419C194.632 22.3144 194.184 22.3007 193.745 22.345C193.416 22.3783 193.109 22.698 192.761 22.3973C192.387 22.7729 191.909 22.4541 191.508 22.5854C191.156 22.7007 190.844 22.9335 190.493 23.0519C189.925 23.2426 189.338 23.3765 188.762 23.5468C188.585 23.5991 188.402 23.6665 188.251 23.7699C187.337 24.3938 186.245 24.5765 185.242 24.9743C184.17 25.4 183.042 25.7003 182.008 26.2178C181.271 26.5877 180.476 26.8165 179.722 27.1211C178.928 27.4418 178.165 27.8427 177.356 28.1278C175.697 28.7127 174.163 29.5704 172.579 30.319C170.556 31.2755 168.537 32.2414 166.525 33.2215C163.002 34.9368 159.491 36.6761 155.963 38.3821C155.093 38.8034 154.201 39.2101 153.276 39.4761C152.828 39.6052 152.474 39.8872 152.035 39.9928C151.375 40.1511 150.721 40.3325 150.057 40.47C149.532 40.5791 148.955 40.5382 148.474 40.7396C147.627 41.0939 146.713 41.1063 145.845 41.3897C144.93 41.6886 143.949 41.2939 143.173 40.6442C142.834 40.3604 142.552 40.0101 142.226 39.7107C140.946 38.5373 140.641 37.1351 141.174 35.5027C141.409 34.7834 141.692 34.0672 141.664 33.2862C142.15 32.8405 141.655 32.1137 142.13 31.6649C142.028 30.7758 142.284 29.8968 141.963 28.9713C141.751 28.3593 141.559 27.6467 141.65 26.9127C141.88 25.0453 141.48 23.1898 141.366 21.3334C141.286 20.0447 140.957 18.7316 140.591 17.4482C140.341 16.5742 139.944 15.7675 139.641 14.9307C139.3 13.9932 138.633 13.1652 138.056 12.3253C136.841 10.5585 135.224 9.21525 133.436 8.06268C132.142 7.22808 130.79 6.49724 129.325 6.02273C128.716 5.82583 128.044 5.76197 127.438 5.59479C126.766 5.40942 126.073 5.58769 125.482 5.36463C124.851 5.12604 124.242 5.12471 123.635 5.17748C122.487 5.27726 121.343 5.45731 120.206 5.65066C119.094 5.84002 118.064 6.30167 117.014 6.69902C115.633 7.22276 114.338 7.89017 113.162 8.78731C112.98 8.92611 112.744 9.0188 112.61 9.19219C111.881 10.1346 111.12 11.0592 110.477 12.0583C109.386 13.7519 108.152 14.9582 106.637 16.1338C106.391 16.324 106.228 16.6198 106.025 16.8682C105.627 16.7276 105.347 16.5546 105.062 16.5475C104.732 16.54 104.479 16.3919 104.19 16.3063C103.893 16.2185 103.527 16.2127 103.234 16.3067C102.921 16.4079 102.75 15.9391 102.415 16.1932C102.322 16.2628 102.041 16.0832 101.846 16.0176C101.634 15.9462 101.4 15.9098 101.215 15.7945C100.931 15.6176 100.824 16.144 100.511 15.9183C100.345 15.7985 100.062 15.8531 99.8389 15.7985C99.5852 15.7369 99.3448 15.6167 99.0903 15.567C98.7346 15.4974 98.4211 15.716 98.0974 15.7653C97.8716 15.7994 97.61 15.4069 97.3315 15.3373C96.9661 15.2464 96.5962 15.2744 96.2108 15.116C95.8672 14.975 95.2636 14.8504 95.0893 15.5431C95.0778 15.5883 94.7328 15.5493 94.5075 15.5493C94.6139 15.3285 94.6889 15.1724 94.7678 15.0092C94.3749 14.8477 94.0795 14.336 93.6024 14.7888C93.4361 14.524 93.2871 14.8118 93.1784 14.7985C92.8666 14.7599 92.7518 14.002 92.2489 14.5426C91.9167 14.4052 91.593 14.2326 91.248 14.1488C91.107 14.1147 90.8946 14.3617 90.7597 14.3236C90.5637 14.2681 90.4116 13.928 90.177 14.2091C89.9588 14.4703 89.8568 14.0734 89.7517 14.1586C89.6506 14.2411 89.6302 14.4225 89.5739 14.5608C88.757 14.3005 88.757 14.3005 88.5597 13.5785C88.3508 13.6779 88.1304 13.7457 87.9566 13.8761C87.8036 13.9901 87.702 14.1741 87.592 14.3094C87.4594 14.0898 87.3233 13.8637 87.192 13.6464C85.4936 14.0943 85.3667 14.0584 84.7614 12.943H83.9414C83.8878 13.0566 83.8124 13.2175 83.725 13.4034C83.5729 12.7958 83.5729 12.7958 82.9618 12.461C82.7033 12.3918 83.164 13.1098 82.6128 12.7665C82.3143 12.5807 81.9724 12.5843 81.6265 12.8007C81.4709 12.8983 81.1786 12.8721 80.987 12.7998C80.6066 12.6557 80.0606 12.6601 80.1329 11.9834C80.1458 11.8672 79.9449 11.6561 79.6229 11.8787C79.3103 12.0942 78.8278 12.0645 78.3404 12.1577C78.4118 11.9466 78.4806 11.743 78.5693 11.4796C77.8916 11.7244 77.3324 11.8867 76.8114 11.3262C76.6446 11.1466 76.4047 11.5439 76.0446 11.3253C75.551 11.025 74.8867 11.0064 74.2131 10.8477C74.1949 10.7279 74.1612 10.5062 74.1297 10.3C74.0707 10.272 74.0352 10.2383 74.0038 10.2423C73.7128 10.2778 72.5807 10.1044 72.2472 10.0015C71.6733 9.82547 71.0937 9.6667 70.5132 9.51504C67.797 8.80593 65.1938 7.73984 62.5064 6.95623C60.5973 6.39968 58.6873 5.82672 56.748 5.3531C55.1165 4.95486 53.4739 4.54199 51.8619 4.03422C50.9616 3.7504 50.0024 3.65506 49.0725 3.46348C48.7789 3.40273 48.4968 3.28654 48.2033 3.22889C47.7159 3.13265 47.2228 3.06347 46.7323 2.98276C46.2414 2.90205 45.7296 2.88476 45.2644 2.72777C44.2165 2.37433 43.0967 2.41912 42.0413 2.05015C41.4488 1.84305 40.7441 2.02399 40.09 1.79471C39.5556 1.60801 38.8705 1.75924 38.4057 1.49271C37.8669 1.18406 37.2949 1.35568 36.7449 1.10069C36.1973 0.847023 35.458 1.05989 34.8035 0.83638C34.5454 0.74813 34.1471 0.95922 33.8535 1.11177C33.4353 1.32952 33.073 1.41333 32.6903 1.05457C32.5174 0.892257 30.3963 0.0425729 30.3151 0.12151C29.8654 0.560099 29.4752 0.16364 28.9377 0C29.0016 0.262089 29.037 0.421294 29.0801 0.578282C29.1155 0.709105 29.1599 0.83771 29.2242 1.04259C28.6681 0.859884 28.6508 0.475397 28.7098 0.0478945C28.4827 0.178717 28.2969 0.341913 28.245 0.306436C27.967 0.119293 27.7492 0.200447 27.4583 0.294019C27.2561 0.358765 26.9736 0.143683 26.7195 0.0864762C26.566 0.0518857 26.3944 0.0576508 26.2379 0.0851458C26.0077 0.126388 25.8295 0.553447 25.5483 0.187587C25.2813 -0.159648 25.0476 0.403555 24.888 0.234594C24.4321 -0.246124 24.1008 0.309984 23.7168 0.345461C23.3913 0.375617 22.9664 0.435929 22.8786 0.921969C22.8702 0.969863 22.5797 1.03949 22.4928 0.984498C22.3252 0.878509 22.1859 0.689592 21.989 0.873187C21.4524 1.37519 20.6613 1.44127 20.1424 1.97565C20.0174 2.1047 19.8151 2.25104 19.659 2.23951C19.2985 2.21335 19.1504 2.47322 18.9903 2.67322C18.7632 2.95793 18.5233 3.20849 18.2306 3.428C17.9224 3.65861 17.7233 3.95972 17.2381 3.99076C16.8674 4.01427 16.6723 4.55796 16.2239 4.72249C14.9543 5.18857 13.7822 5.90566 12.6824 6.65379C11.6088 7.38373 10.4775 8.05781 9.49654 8.95139C8.89032 9.50395 8.24774 10.0281 7.65526 10.6042C6.70491 11.5284 6.06187 12.6991 5.21442 13.6947C4.03612 15.0783 3.36072 16.709 2.57623 18.2966C1.87334 19.7188 1.44627 21.2195 1.0844 22.7654C0.862671 23.714 0.891052 24.7344 0.402359 25.6204C0.385056 25.6515 0.393921 25.7012 0.401016 25.7402C0.581055 26.6972 0.11853 27.5952 0.151352 28.5429C0.183273 29.4689 0.135818 30.3979 0.169083 31.3239C0.182831 31.696 0.342484 32.0605 0.393478 32.4343C0.439606 32.7758 0.406769 33.0978 0.612106 33.4397C0.766434 33.6973 0.682617 34.0885 0.850693 34.4264C0.95047 34.6259 0.702576 34.9847 0.647141 35.2783C0.586395 35.6033 0.610336 35.9089 1.05647 35.9315C1.14827 36.5839 1.68884 37.0974 1.7811 37.6761C1.96336 38.8154 2.85516 39.5781 3.10883 40.6447C3.65518 40.9662 3.52791 41.6935 4.02814 42.0957C4.41928 42.4101 4.59799 42.9782 4.91064 43.4039C5.25566 43.874 5.64723 44.3099 6.01532 44.7632C6.08672 44.851 6.21222 44.9676 6.19447 45.0439C6.03484 45.7423 6.5834 46.039 6.95946 46.4262C7.57809 47.0617 8.18831 47.7082 8.84377 48.3043C9.96307 49.3216 11.0988 50.3158 12.3768 51.1473C13.2172 51.6937 13.8988 52.5034 14.7689 52.9819C15.7366 53.5146 16.6102 54.1709 17.5428 54.7443C18.7255 55.4711 19.9482 56.1275 21.1597 56.8042C22.4365 57.5177 23.7602 58.1373 25.0272 58.8623C25.7789 59.2925 26.472 59.8597 27.2672 60.1706C28.3661 60.5998 29.2996 61.2983 30.3182 61.8491C31.5816 62.5325 32.7373 63.4159 33.9365 64.2172C34.968 64.9063 35.7733 65.8452 36.6633 66.6917C37.0274 67.0381 37.3428 67.4195 37.8261 67.6674C38.2519 67.8865 38.5658 68.3348 38.7911 68.8155C39.2355 69.7619 39.6852 70.7073 39.9659 71.714C40.0794 72.1216 40.0115 72.5766 40.0794 73.0014C40.1313 73.3256 39.7943 73.8431 40.4758 73.9207C40.518 73.9256 40.5495 74.2032 40.5504 74.3544C40.5579 75.2006 40.541 76.0476 40.5588 76.8937C40.5703 77.4432 40.1317 77.9164 40.3122 78.4867C39.8173 78.9723 40.1845 79.6623 39.8687 80.2437C39.5938 80.7497 39.7122 81.4552 39.5752 82.0539C39.3996 82.8189 38.9978 83.5577 38.957 84.3222C38.9086 85.2313 38.4279 85.9786 38.2878 86.8487C38.1601 87.6425 37.6257 88.3711 37.4971 89.1653C37.3259 90.2208 36.9787 91.2106 36.6971 92.2266C36.6682 92.3317 36.8252 92.4878 36.9064 92.6404C36.7915 92.6798 36.6509 92.7282 36.4749 92.7885C36.4363 93.5344 36.2917 94.2714 36.0132 94.989C35.9046 95.2688 35.9977 95.6214 35.9503 95.9331C35.9055 96.2276 35.7596 96.5083 35.7259 96.8027C35.6868 97.1478 35.6944 97.4724 35.4926 97.801C35.3232 98.0759 35.258 98.4467 35.2474 98.7784C35.2354 99.1385 35.1773 99.464 34.9897 99.7655C34.8137 100.048 35.4558 100.354 34.9458 100.641C34.5888 100.843 34.8851 101.282 34.7307 101.51C34.3635 102.053 34.497 102.692 34.3081 103.271C34.187 103.643 34.1023 104.077 34.0318 104.488C33.9622 104.893 34.1387 105.34 33.8172 105.702C34.2079 105.909 33.7875 106.062 33.7733 106.242C33.7587 106.425 33.6589 106.601 33.6358 106.785C33.6083 107 33.6163 107.221 33.6225 107.439C33.6252 107.525 33.7076 107.665 33.6797 107.688C33.042 108.193 33.3786 109.002 33.0779 109.622C32.94 109.906 32.948 110.277 32.8531 110.611C32.7218 111.074 32.4522 111.533 32.5511 112.075C32.5928 112.302 32.4668 112.612 32.3174 112.809C32.0495 113.161 32.0739 113.543 32.0934 113.927C32.1227 114.508 32.0189 114.481 31.8806 115.106C31.7488 115.702 31.3865 116.235 31.3812 116.834C31.3759 117.376 30.7165 117.906 31.3222 118.472C31.328 118.478 31.1435 118.687 31.0473 118.801C30.7972 119.094 30.8295 119.468 30.7333 119.804C30.61 120.234 30.602 120.591 30.8491 120.969C30.7098 121.001 30.6003 121.026 30.4903 121.051C30.4615 121.079 30.4118 121.105 30.4078 121.137C30.32 121.827 30.2446 122.519 30.1501 123.209C30.0668 123.82 30.3643 124.467 29.924 125.054C29.7803 125.246 30.3116 125.523 29.9315 125.836C29.8481 125.905 30.0269 126.292 30.0854 126.533C29.9497 126.58 29.8096 126.629 29.6752 126.676C29.7107 127.37 30.473 127.938 29.9475 128.681C30.3209 128.835 30.9258 128.724 30.8677 129.486C30.6504 129.379 30.4965 129.303 30.3537 129.233C30.2717 129.295 30.159 129.342 30.1612 129.384C30.1763 129.654 30.2153 129.923 30.2477 130.191C30.2583 130.277 30.296 130.433 30.2818 130.438C29.661 130.646 30.312 131.201 29.9466 131.577C29.6136 131.921 30.0575 132.468 30.1923 132.882C30.3165 133.262 30.3604 133.622 30.4007 134.003C30.457 134.537 30.4247 135.141 30.6721 135.577C30.9342 136.038 30.7289 136.518 30.9444 136.92C31.163 137.328 31.4389 137.701 31.3622 138.2C31.9289 138.848 31.8806 139.763 32.3391 140.453C32.4291 140.588 32.642 140.641 32.807 140.737V141.931C33.1272 142.121 33.5591 142.193 33.556 142.692C34.1422 143.007 33.3759 143.362 33.5946 143.724C33.6926 143.733 33.8456 143.793 33.9046 143.743C34.0593 143.611 34.148 143.48 34.3493 143.71C34.4904 143.871 34.4057 143.916 34.3489 144.067C34.2003 144.462 34.5263 145.016 34.5981 144.944C35.0509 144.487 35.0935 145.078 35.3055 145.181C35.3884 145.221 35.4842 145.385 35.4642 145.464C35.2757 146.213 35.8855 146.399 36.3268 146.659C37.5893 147.401 37.5977 147.387 38.6186 147.425C38.6186 147.653 38.6501 147.891 38.6115 148.116C38.5534 148.453 38.7259 148.672 38.965 148.816C39.7042 149.261 40.439 149.725 41.2178 150.092C41.9566 150.44 42.73 150.825 43.5225 150.925C44.7056 151.075 45.8121 151.6 47.0432 151.52C48.2073 151.445 49.3802 151.492 50.5492 151.507C51.794 151.522 52.9608 151.147 54.1524 150.867C54.9644 150.677 55.7311 150.426 56.4899 150.076C56.9609 149.859 57.5072 149.715 58.0731 149.806C58.8288 149.927 59.5033 149.619 60.1685 149.324C61.9867 148.521 63.3508 147.527 64.8914 146.413C65.6786 145.844 66.4936 145.331 67.173 144.616C68.2937 143.434 69.0671 142.134 69.8423 140.275C70.2431 139.312 70.7908 138.396 71.3665 137.522C72.4822 135.827 73.1869 134.2 74.2193 132.052C75.0801 130.261 75.7089 128.39 76.438 126.559C76.8211 125.596 77.2531 124.638 77.5834 123.645C77.9111 122.658 78.2553 121.677 78.8407 120.772C79.1897 120.232 79.3994 119.548 79.7542 118.985C80.4163 117.933 80.9001 116.798 81.4287 115.684C82.0687 114.337 82.7729 113.008 83.325 111.633C83.8177 110.405 84.5955 109.349 85.0851 108.128C85.5698 106.919 86.2342 105.781 86.8364 104.621C87.412 103.512 88.1668 102.58 89.3673 102.077C90.0883 101.775 90.7269 101.337 91.2139 100.702Z" fill="#FDBC64"/>
</svg>
